<svg width="90" height="89" viewBox="0 0 90 89" fill="none" xmlns="http://www.w3.org/2000/svg">
<path d="M3.22244 19.0251C2.03787 17.0419 3.44528 14.5201 5.75515 14.4871L27.2997 14.1793C30.8803 14.1282 34.215 15.9956 36.0424 19.0752L57.6601 55.506C59.4918 58.593 59.5286 62.425 57.7563 65.5465L47.2644 84.0257C46.1292 86.0252 43.259 86.0568 42.08 84.0828L3.22244 19.0251Z" fill="#C3C4C9"/>
<path d="M70.698 41.3532C69.549 43.3821 66.626 43.3821 65.4771 41.3532L52.3603 18.1912C51.2277 16.1913 52.6724 13.7129 54.9707 13.7129L81.2043 13.7129C83.5027 13.7129 84.9474 16.1913 83.8148 18.1912L70.698 41.3532Z" fill="#C3C4C9"/>
</svg>
