<svg width="22" height="22" viewBox="0 0 22 22" fill="none" xmlns="http://www.w3.org/2000/svg">
<path d="M8.22784 3.6571H4.57076C4.06583 3.6571 3.65649 4.06644 3.65649 4.57137V8.22845C3.65649 8.73338 4.06583 9.14272 4.57076 9.14272H8.22784C8.73277 9.14272 9.14211 8.73338 9.14211 8.22845V4.57137C9.14211 4.06644 8.73277 3.6571 8.22784 3.6571Z" stroke="#5A5A5C" stroke-linecap="round" stroke-linejoin="round"/>
<path d="M17.3716 3.6571H13.7146C13.2096 3.6571 12.8003 4.06644 12.8003 4.57137V8.22845C12.8003 8.73338 13.2096 9.14272 13.7146 9.14272H17.3716C17.8766 9.14272 18.2859 8.73338 18.2859 8.22845V4.57137C18.2859 4.06644 17.8766 3.6571 17.3716 3.6571Z" stroke="#5A5A5C" stroke-linecap="round" stroke-linejoin="round"/>
<path d="M8.22784 12.7998H4.57076C4.06583 12.7998 3.65649 13.2091 3.65649 13.7141V17.3711C3.65649 17.8761 4.06583 18.2854 4.57076 18.2854H8.22784C8.73277 18.2854 9.14211 17.8761 9.14211 17.3711V13.7141C9.14211 13.2091 8.73277 12.7998 8.22784 12.7998Z" stroke="#5A5A5C" stroke-linecap="round" stroke-linejoin="round"/>
<path d="M17.3716 12.7998H13.7146C13.2096 12.7998 12.8003 13.2091 12.8003 13.7141V17.3711C12.8003 17.8761 13.2096 18.2854 13.7146 18.2854H17.3716C17.8766 18.2854 18.2859 17.8761 18.2859 17.3711V13.7141C18.2859 13.2091 17.8766 12.7998 17.3716 12.7998Z" stroke="#5A5A5C" stroke-linecap="round" stroke-linejoin="round"/>
</svg>
