<svg width="24" height="25" viewBox="0 0 24 25" fill="none" xmlns="http://www.w3.org/2000/svg">
<path d="M18.5307 22.3777L18.2044 22.7566C18.2993 22.8383 18.4214 22.8815 18.5465 22.8775L18.5307 22.3777ZM16.5412 19.7783C16.3701 19.5616 16.0556 19.5246 15.8389 19.6957C15.6222 19.8669 15.5852 20.1813 15.7563 20.398L16.5412 19.7783ZM17.4403 18.9139L17.2664 18.4451C17.2598 18.4476 17.2532 18.4502 17.2467 18.4529L17.4403 18.9139ZM14.6028 19.7555L14.5189 19.2625L14.5107 19.264L14.6028 19.7555ZM9.53435 19.7359L9.43957 20.2269L9.4426 20.2275L9.53435 19.7359ZM6.65765 18.8945L6.47542 19.3601L6.4759 19.3603L6.65765 18.8945ZM5.22893 18.2291L4.95092 18.6447C4.96189 18.652 4.97315 18.6589 4.98467 18.6654L5.22893 18.2291ZM5.05288 18.1312L5.33045 17.7153C5.31313 17.7037 5.29511 17.6933 5.27648 17.684L5.05288 18.1312ZM4.97462 18.0726L5.32817 17.719C5.29533 17.6862 5.25807 17.6581 5.21747 17.6355L4.97462 18.0726ZM8.24382 20.3587C8.41489 20.142 8.37785 19.8276 8.16108 19.6565C7.94432 19.4854 7.62991 19.5224 7.45883 19.7392L8.24382 20.3587ZM5.46949 22.3777L5.45366 22.8775C5.58096 22.8815 5.70499 22.8368 5.80046 22.7525L5.46949 22.3777ZM0.571533 18.6988H0.0715332C0.0715332 18.7255 0.0736791 18.7522 0.0779502 18.7786L0.571533 18.6988ZM3.38951 4.84066L3.08951 4.44066C3.01294 4.49809 2.95447 4.57628 2.92103 4.66596L3.38951 4.84066ZM8.88849 2.78587L9.38623 2.73846C9.36219 2.48601 9.15297 2.29154 8.89944 2.28599L8.88849 2.78587ZM8.58645 4.8882C8.61263 5.1631 8.85671 5.36472 9.13161 5.33854C9.4065 5.31236 9.60813 5.06829 9.58195 4.79339L8.58645 4.8882ZM14.3417 4.85536C14.3065 5.12925 14.5 5.3798 14.7739 5.41498C15.0478 5.45016 15.2984 5.25664 15.3335 4.98275L14.3417 4.85536ZM15.1116 2.786L15.1006 2.28612C14.8533 2.29155 14.6472 2.47697 14.6157 2.72231L15.1116 2.786ZM20.6106 4.84079L21.079 4.66608C21.0456 4.57641 20.9871 4.49823 20.9106 4.44081L20.6106 4.84079ZM23.4287 18.6988L23.9223 18.7786C23.9265 18.7522 23.9287 18.7255 23.9287 18.6988H23.4287ZM10.3366 14.7065L9.83661 14.6983V14.7065H10.3366ZM18.5307 22.3777C18.857 21.9989 18.857 21.9989 18.857 21.9989C18.857 21.9989 18.857 21.9989 18.857 21.9989C18.857 21.9988 18.8569 21.9988 18.8568 21.9987C18.8566 21.9986 18.8563 21.9983 18.8559 21.998C18.8552 21.9973 18.8539 21.9962 18.8523 21.9948C18.8491 21.992 18.8441 21.9878 18.8377 21.9822C18.8247 21.971 18.8055 21.9543 18.7808 21.9327C18.7313 21.8897 18.6597 21.8271 18.5719 21.7496C18.3962 21.5946 18.1561 21.3804 17.8981 21.1435C17.3711 20.6596 16.8058 20.1136 16.5412 19.7783L15.7563 20.398C16.0788 20.8064 16.7046 21.4052 17.2217 21.8801C17.4859 22.1227 17.7311 22.3414 17.9103 22.4995C17.9999 22.5786 18.0732 22.6426 18.1241 22.687C18.1496 22.7092 18.1695 22.7264 18.1832 22.7382C18.19 22.7441 18.1952 22.7486 18.1988 22.7517C18.2006 22.7533 18.2019 22.7545 18.2029 22.7553C18.2034 22.7557 18.2037 22.756 18.204 22.7562C18.2041 22.7563 18.2042 22.7564 18.2043 22.7565C18.2043 22.7565 18.2043 22.7565 18.2044 22.7565C18.2044 22.7566 18.2044 22.7566 18.5307 22.3777ZM19.4159 17.3418C18.6451 17.8494 17.9158 18.2041 17.2664 18.4451L17.6143 19.3827C18.3347 19.1153 19.1318 18.7263 19.9659 18.177L19.4159 17.3418ZM17.2467 18.4529C16.301 18.8503 15.3984 19.1128 14.5189 19.2626L14.6868 20.2484C15.6467 20.0849 16.6228 19.7997 17.634 19.3749L17.2467 18.4529ZM14.5107 19.264C12.7039 19.6028 11.0453 19.5094 9.62611 19.2444L9.4426 20.2275C10.9587 20.5105 12.7442 20.6126 14.695 20.2469L14.5107 19.264ZM9.62914 19.245C8.55006 19.0367 7.62075 18.7336 6.8394 18.4287L6.4759 19.3603C7.29905 19.6815 8.28754 20.0045 9.43957 20.2269L9.62914 19.245ZM6.83988 18.4289C6.40346 18.2581 5.93652 18.0522 5.47318 17.7928L4.98467 18.6654C5.50003 18.9539 6.01153 19.1785 6.47542 19.3601L6.83988 18.4289ZM5.50693 17.8135C5.44764 17.7738 5.39089 17.7461 5.36466 17.733C5.33205 17.7167 5.32999 17.715 5.33045 17.7153L4.77531 18.5471C4.8345 18.5866 4.89116 18.6142 4.91725 18.6273C4.94971 18.6435 4.95162 18.6451 4.95092 18.6447L5.50693 17.8135ZM5.27648 17.684C5.28828 17.6899 5.30316 17.699 5.31825 17.711C5.3306 17.7209 5.33883 17.7297 5.32817 17.719L4.62107 18.4261C4.65175 18.4568 4.71707 18.5223 4.82927 18.5784L5.27648 17.684ZM5.21747 17.6355C5.05024 17.5426 4.92131 17.4643 4.83556 17.4101C4.7927 17.383 4.76068 17.362 4.7401 17.3483C4.72981 17.3415 4.72239 17.3364 4.71791 17.3334C4.71567 17.3318 4.71417 17.3308 4.71341 17.3303C4.71303 17.33 4.71284 17.3299 4.71284 17.3299C4.71283 17.3299 4.71288 17.3299 4.71297 17.33C4.71302 17.33 4.71307 17.33 4.71314 17.3301C4.71318 17.3301 4.71322 17.3301 4.71326 17.3302C4.71328 17.3302 4.71331 17.3302 4.71332 17.3302C4.71335 17.3302 4.71339 17.3302 4.42667 17.7399C4.13996 18.1495 4.14 18.1495 4.14003 18.1496C4.14005 18.1496 4.14008 18.1496 4.14011 18.1496C4.14016 18.1496 4.14022 18.1497 4.14028 18.1497C4.14039 18.1498 4.14052 18.1499 4.14066 18.15C4.14095 18.1502 4.14128 18.1504 4.14166 18.1507C4.14241 18.1512 4.14336 18.1519 4.1445 18.1527C4.14678 18.1542 4.14983 18.1563 4.15363 18.1589C4.16123 18.1641 4.17185 18.1713 4.18542 18.1804C4.21254 18.1985 4.25146 18.2239 4.30156 18.2556C4.40172 18.3188 4.54677 18.4068 4.73177 18.5096L5.21747 17.6355ZM7.45883 19.7392C7.19248 20.0767 6.62525 20.6337 6.0984 21.1274C5.84021 21.3694 5.59988 21.5886 5.42402 21.7474C5.33615 21.8267 5.26452 21.8908 5.21496 21.935C5.19019 21.9571 5.17094 21.9742 5.15796 21.9857C5.15147 21.9915 5.14654 21.9959 5.14327 21.9988C5.14164 22.0002 5.14042 22.0013 5.13962 22.002C5.13923 22.0023 5.13893 22.0026 5.13875 22.0028C5.13866 22.0028 5.1386 22.0029 5.13856 22.0029C5.13854 22.0029 5.13853 22.003 5.13852 22.003C5.13852 22.003 5.13853 22.003 5.46949 22.3777C5.80046 22.7525 5.80048 22.7525 5.8005 22.7525C5.80052 22.7525 5.80055 22.7524 5.80059 22.7524C5.80066 22.7523 5.80076 22.7523 5.80089 22.7521C5.80114 22.7519 5.8015 22.7516 5.80197 22.7512C5.8029 22.7504 5.80427 22.7492 5.80605 22.7476C5.80961 22.7444 5.81483 22.7398 5.82163 22.7338C5.83522 22.7217 5.85511 22.704 5.88056 22.6813C5.93145 22.636 6.00462 22.5704 6.09419 22.4896C6.27321 22.3279 6.51827 22.1044 6.78216 21.8571C7.29947 21.3724 7.92316 20.765 8.24382 20.3587L7.45883 19.7392ZM5.48532 21.878C3.4817 21.8145 2.39481 20.9737 1.79718 20.1849C1.49211 19.7823 1.307 19.3823 1.19864 19.0838C1.14464 18.935 1.11029 18.813 1.08987 18.7307C1.07967 18.6897 1.07299 18.6587 1.0691 18.6395C1.06716 18.6299 1.06592 18.6232 1.06528 18.6197C1.06497 18.618 1.0648 18.617 1.06478 18.6169C1.06477 18.6168 1.06479 18.6169 1.06485 18.6173C1.06487 18.6174 1.06491 18.6177 1.06496 18.6179C1.06498 18.6181 1.06502 18.6183 1.06503 18.6184C1.06507 18.6187 1.06512 18.6189 0.571533 18.6988C0.0779502 18.7786 0.0779987 18.7789 0.0780496 18.7792C0.0780696 18.7794 0.078123 18.7797 0.0781632 18.7799C0.0782438 18.7804 0.0783339 18.781 0.0784338 18.7816C0.0786337 18.7828 0.0788727 18.7842 0.0791525 18.7858C0.0797122 18.7891 0.0804351 18.7932 0.0813339 18.7982C0.0831314 18.8081 0.0856341 18.8213 0.0889437 18.8377C0.0955605 18.8704 0.105418 18.9157 0.119337 18.9717C0.147148 19.0837 0.191348 19.2395 0.258641 19.4249C0.392871 19.7948 0.621325 20.2889 1.00012 20.7888C1.77023 21.8053 3.13233 22.804 5.45366 22.8775L5.48532 21.878ZM1.07153 18.6988C1.07153 15.6116 1.76359 12.1955 2.46406 9.53397C2.81332 8.2069 3.1626 7.07499 3.42438 6.27544C3.55524 5.87578 3.66412 5.55946 3.74007 5.34366C3.77804 5.23577 3.80777 5.15304 3.82789 5.0976C3.83794 5.06988 3.8456 5.04899 3.85067 5.03519C3.85321 5.02829 3.8551 5.02317 3.85633 5.01985C3.85695 5.0182 3.85739 5.01699 3.85767 5.01624C3.85781 5.01586 3.85791 5.0156 3.85796 5.01546C3.85799 5.01538 3.858 5.01536 3.85801 5.01532C3.85801 5.01533 3.858 5.01536 3.38951 4.84066C2.92103 4.66596 2.92099 4.66605 2.92095 4.66617C2.92092 4.66625 2.92086 4.6664 2.92081 4.66655C2.92069 4.66687 2.92053 4.6673 2.92033 4.66784C2.91992 4.66893 2.91935 4.67047 2.91861 4.67247C2.91713 4.67646 2.91498 4.68228 2.91219 4.68987C2.9066 4.70505 2.89843 4.72736 2.88785 4.75653C2.86668 4.81486 2.83587 4.90063 2.79679 5.01168C2.71863 5.23376 2.60736 5.55704 2.47402 5.96429C2.20743 6.77854 1.85223 7.92966 1.49699 9.27945C0.788471 11.9716 0.0715332 15.4846 0.0715332 18.6988H1.07153ZM3.68952 5.24066C5.03496 4.23156 6.34487 3.743 7.31427 3.50644C7.79903 3.38815 8.19786 3.33309 8.47193 3.30756C8.6089 3.2948 8.71448 3.28943 8.78378 3.28722C8.81842 3.28611 8.84396 3.28579 8.8598 3.28572C8.86772 3.28569 8.87321 3.28572 8.87619 3.28574C8.87768 3.28576 8.87855 3.28577 8.87877 3.28577C8.87889 3.28578 8.87884 3.28577 8.87864 3.28577C8.87853 3.28577 8.87839 3.28577 8.87821 3.28576C8.87812 3.28576 8.87795 3.28576 8.8779 3.28576C8.87772 3.28575 8.87754 3.28575 8.88849 2.78587C8.89944 2.28599 8.89923 2.28598 8.89901 2.28598C8.89892 2.28598 8.89869 2.28597 8.89852 2.28597C8.89817 2.28596 8.89779 2.28595 8.89736 2.28595C8.8965 2.28593 8.89548 2.28591 8.89429 2.28589C8.89192 2.28586 8.8889 2.28582 8.88523 2.28578C8.87789 2.28572 8.86798 2.28568 8.85558 2.28573C8.83077 2.28583 8.79596 2.28632 8.75179 2.28773C8.66346 2.29056 8.53757 2.29711 8.37917 2.31187C8.06249 2.34137 7.61495 2.40373 7.07721 2.53495C6.00163 2.79741 4.56205 3.33624 3.08951 4.44066L3.68952 5.24066ZM8.39074 2.83327L8.58645 4.8882L9.58195 4.79339L9.38623 2.73846L8.39074 2.83327ZM15.3335 4.98275L15.6075 2.8497L14.6157 2.72231L14.3417 4.85536L15.3335 4.98275ZM15.1116 2.786C15.1226 3.28588 15.1224 3.28589 15.1222 3.28589C15.1221 3.28589 15.122 3.28589 15.1219 3.2859C15.1217 3.2859 15.1216 3.2859 15.1215 3.2859C15.1213 3.28591 15.1212 3.28591 15.1213 3.28591C15.1215 3.2859 15.1224 3.28589 15.1239 3.28588C15.1269 3.28585 15.1324 3.28582 15.1403 3.28585C15.1561 3.28592 15.1817 3.28624 15.2163 3.28735C15.2856 3.28956 15.3912 3.29492 15.5282 3.30768C15.8022 3.3332 16.2011 3.38825 16.6858 3.50653C17.6552 3.74306 18.9651 4.23162 20.3105 5.24078L20.9106 4.44081C19.438 3.33631 17.9984 2.79748 16.9229 2.53503C16.3851 2.40382 15.9376 2.34148 15.6209 2.31199C15.4625 2.29723 15.3366 2.29068 15.2483 2.28786C15.2041 2.28644 15.1693 2.28597 15.1445 2.28586C15.1321 2.28581 15.1222 2.28585 15.1148 2.28592C15.1112 2.28595 15.1081 2.28599 15.1058 2.28603C15.1046 2.28605 15.1035 2.28606 15.1027 2.28608C15.1023 2.28609 15.1019 2.2861 15.1015 2.2861C15.1014 2.28611 15.1011 2.28611 15.101 2.28611C15.1008 2.28612 15.1006 2.28612 15.1116 2.786ZM20.6106 4.84079C20.1421 5.01551 20.1421 5.01547 20.1421 5.01547C20.1421 5.0155 20.1421 5.01553 20.1421 5.0156C20.1422 5.01575 20.1423 5.01601 20.1424 5.01638C20.1427 5.01713 20.1431 5.01834 20.1437 5.02C20.145 5.02331 20.1469 5.02844 20.1494 5.03534C20.1545 5.04913 20.1621 5.07002 20.1722 5.09774C20.1923 5.15318 20.222 5.23591 20.26 5.3438C20.336 5.55959 20.4449 5.8759 20.5757 6.27556C20.8375 7.0751 21.1868 8.20699 21.5361 9.53404C22.2366 12.1956 22.9287 15.6116 22.9287 18.6988H23.9287C23.9287 15.4846 23.2117 11.9716 22.5031 9.27951C22.1479 7.92974 21.7927 6.77863 21.5261 5.96439C21.3927 5.55715 21.2815 5.23388 21.2033 5.0118C21.1642 4.90075 21.1334 4.81498 21.1122 4.75665C21.1016 4.72749 21.0935 4.70518 21.0879 4.68999C21.0851 4.6824 21.0829 4.67659 21.0815 4.67259C21.0807 4.67059 21.0801 4.66905 21.0797 4.66796C21.0795 4.66742 21.0794 4.66699 21.0793 4.66668C21.0792 4.66652 21.0791 4.66637 21.0791 4.66629C21.0791 4.66617 21.079 4.66608 20.6106 4.84079ZM23.4287 18.6988C22.9351 18.6189 22.9351 18.6186 22.9352 18.6184C22.9352 18.6183 22.9352 18.6181 22.9353 18.6179C22.9353 18.6177 22.9353 18.6174 22.9354 18.6173C22.9354 18.6169 22.9354 18.6168 22.9354 18.6169C22.9354 18.617 22.9352 18.618 22.9349 18.6197C22.9343 18.6232 22.9331 18.6299 22.9311 18.6395C22.9272 18.6587 22.9205 18.6897 22.9103 18.7307C22.8899 18.813 22.8556 18.935 22.8016 19.0838C22.6932 19.3823 22.5081 19.7823 22.203 20.1849C21.6053 20.9737 20.5184 21.8145 18.5149 21.878L18.5465 22.8775C20.8678 22.804 22.2299 21.8053 23 20.7888C23.3788 20.2889 23.6073 19.7948 23.7415 19.425C23.8088 19.2395 23.853 19.0838 23.8809 18.9718C23.8948 18.9157 23.9046 18.8704 23.9113 18.8377C23.9146 18.8213 23.9171 18.8081 23.9189 18.7982C23.9198 18.7932 23.9205 18.7891 23.9211 18.7858C23.9213 18.7842 23.9216 18.7828 23.9218 18.7816C23.9219 18.781 23.922 18.7804 23.922 18.78C23.9221 18.7797 23.9221 18.7794 23.9222 18.7793C23.9222 18.7789 23.9223 18.7786 23.4287 18.6988ZM8.34054 12.0344C6.90712 12.0344 5.84461 13.2805 5.84461 14.7065H6.84461C6.84461 13.7452 7.54313 13.0344 8.34054 13.0344V12.0344ZM5.84461 14.7065C5.84461 16.136 6.92967 17.3788 8.34054 17.3788V16.3788C7.55964 16.3788 6.84461 15.6647 6.84461 14.7065H5.84461ZM8.34054 17.3788C9.7741 17.3788 10.8366 16.1327 10.8366 14.7065H9.83661C9.83661 15.668 9.13809 16.3788 8.34054 16.3788V17.3788ZM10.8365 14.7147C10.8603 13.2744 9.76689 12.0344 8.34054 12.0344V13.0344C9.14503 13.0344 9.85227 13.7513 9.83667 14.6983L10.8365 14.7147ZM15.4835 12.0344C14.05 12.0344 12.9873 13.2804 12.9873 14.7065H13.9873C13.9873 13.7452 14.6859 13.0344 15.4835 13.0344V12.0344ZM12.9873 14.7065C12.9873 16.136 14.0727 17.3788 15.4835 17.3788V16.3788C14.7025 16.3788 13.9873 15.6646 13.9873 14.7065H12.9873ZM15.4835 17.3788C16.9169 17.3788 17.9794 16.1326 17.9794 14.7065H16.9794C16.9794 15.668 16.2809 16.3788 15.4835 16.3788V17.3788ZM17.9794 14.7065C17.9794 13.2805 16.9169 12.0344 15.4835 12.0344V13.0344C16.2809 13.0344 16.9794 13.7452 16.9794 14.7065H17.9794ZM5.70889 7.30646C8.09078 6.00745 10.0628 5.38346 12.0038 5.38249C13.9445 5.38153 15.9138 6.0034 18.2904 7.30596L18.771 6.42904C16.3112 5.08086 14.1727 4.38142 12.0033 4.3825C9.83414 4.38357 7.69372 5.08495 5.23009 6.42854L5.70889 7.30646Z" fill="white"/>
</svg>
