<svg width="20" height="15" viewBox="0 0 20 15" fill="none" xmlns="http://www.w3.org/2000/svg">
<path d="M4.85111 3.07829C4.8734 3.07279 4.89569 3.07278 4.91789 3.06728C5.09602 3.69173 5.26854 4.31075 5.44106 4.9352C6.33708 8.19587 7.23311 11.451 8.11799 14.7117C8.17915 14.9383 8.27936 15.0046 8.50752 14.9991C9.1531 14.9826 9.79868 14.9771 10.4443 14.9991C10.7281 15.0101 10.8339 14.9162 10.9117 14.6399C11.9524 10.8542 13.0098 7.07403 14.0673 3.29385C14.0895 3.21091 14.123 3.13355 14.1786 2.96775C14.1786 6.29478 14.1786 9.52778 14.1786 12.7885C13.7055 12.7885 13.2548 12.7885 12.7984 12.7885C12.7984 13.5346 12.7984 14.253 12.7984 14.966C15.0746 14.966 17.323 14.966 19.5714 14.966C19.5714 14.2254 19.5714 13.5069 19.5714 12.7775C19.3432 12.7775 19.1428 12.7885 18.9425 12.7775C18.475 12.7498 18.1689 12.4459 18.1689 11.9926C18.1634 9.00829 18.1634 6.02395 18.1689 3.03961C18.1689 2.5422 18.5084 2.22169 19.0148 2.2106C19.1985 2.2051 19.3877 2.2106 19.5714 2.2106C19.5714 1.45345 19.5714 0.735061 19.5714 0.00550123C19.4267 0.00550123 19.3154 0.00550123 19.1985 0.00550123C17.0837 0.00550123 14.9633 0.0110868 12.8485 0C12.5535 0 12.4311 0.0773566 12.3532 0.364779C11.6408 3.03411 10.9117 5.69235 10.1827 8.35617C10.1605 8.44462 10.127 8.53306 10.0658 8.70986C10.0046 8.51089 9.9712 8.41144 9.94338 8.31199C9.21988 5.64817 8.50199 2.98434 7.78962 0.315014C7.73399 0.0884434 7.65045 0 7.39448 0C5.21844 0.0110868 3.03686 0.00550123 0.855285 0.00550123C0.766218 0.00550123 0.671622 0.0165891 0.571411 0.0220908C0.571411 0.757152 0.571411 1.47562 0.571411 2.2106C0.738401 2.2106 0.888631 2.2106 1.03333 2.2106C1.65663 2.21619 1.97385 2.52562 1.97385 3.13355C1.97385 6.06821 1.97385 8.99729 1.97385 11.9319C1.97385 12.4624 1.6733 12.7664 1.13354 12.783C0.944265 12.7885 0.760603 12.783 0.571411 12.783C0.571411 13.5401 0.571411 14.253 0.571411 14.9715C2.47473 14.9715 4.35584 14.9715 6.23687 14.9715C6.23687 14.2365 6.23687 13.518 6.23687 12.7664C5.76381 12.7664 5.31303 12.7664 4.84558 12.7664C4.85111 9.52228 4.85111 6.30029 4.85111 3.07829Z" fill="#5A5A5C"/>
</svg>
