<svg width="24" height="25" viewBox="0 0 24 25" fill="none" xmlns="http://www.w3.org/2000/svg">
<path d="M16.2127 17.9189L16.7174 17.7063L16.2921 16.697L15.7875 16.9096L16.2127 17.9189ZM8.21272 16.9096L7.70807 16.697L7.28283 17.7063L7.78749 17.9189L8.21272 16.9096ZM12.0001 3.35715L12.0964 2.81806C11.9368 2.78956 11.7728 2.83322 11.6486 2.93726C11.5243 3.04131 11.4525 3.19506 11.4525 3.35714L12.0001 3.35715ZM18.3038 5.03907C18.6016 5.09223 18.886 4.89397 18.9392 4.59624C18.9924 4.29851 18.7941 4.01405 18.4964 3.96088L18.3038 5.03907ZM20.5953 15.7C20.5953 17.0682 19.7388 18.404 18.1871 19.4238C16.6414 20.4396 14.4636 21.0952 12.0001 21.0952V22.1905C14.6468 22.1905 17.0404 21.488 18.7886 20.3391C20.5308 19.1941 21.6906 17.5585 21.6906 15.7H20.5953ZM12.0001 21.0952C9.53654 21.0952 7.3587 20.4396 5.81307 19.4238C4.26138 18.404 3.40487 17.0682 3.40487 15.7H2.30963C2.30963 17.5585 3.46939 19.1941 5.21154 20.3391C6.95974 21.488 9.35331 22.1905 12.0001 22.1905V21.0952ZM3.40487 15.7C3.40487 14.3141 4.28094 12.8014 5.84402 11.6114C7.39529 10.4305 9.56438 9.61905 12.0001 9.61905V8.52381C9.32547 8.52381 6.92316 9.41337 5.18059 10.74C3.44983 12.0577 2.30963 13.8593 2.30963 15.7H3.40487ZM12.0001 9.61905C14.4357 9.61905 16.6048 10.4305 18.1561 11.6114C19.7192 12.8014 20.5953 14.3141 20.5953 15.7H21.6906C21.6906 13.8593 20.5504 12.0576 18.8196 10.74C17.077 9.41337 14.6746 8.52381 12.0001 8.52381V9.61905ZM15.7875 16.9096C14.6578 17.3856 13.6167 17.6667 12.0001 17.6667V18.7619C13.7806 18.7619 14.966 18.4442 16.2127 17.9189L15.7875 16.9096ZM12.0001 17.6667C10.3835 17.6667 9.34241 17.3856 8.21272 16.9096L7.78749 17.9189C9.03421 18.4442 10.2196 18.7619 12.0001 18.7619V17.6667ZM12.5477 9.07144L12.5477 3.35715L11.4525 3.35714L11.4524 9.07143L12.5477 9.07144ZM11.9038 3.89624L18.3038 5.03907L18.4964 3.96088L12.0964 2.81806L11.9038 3.89624ZM20.0001 5.09524C19.6714 5.09524 19.4049 4.82875 19.4049 4.5H18.3096C18.3096 5.43363 19.0665 6.19048 20.0001 6.19048V5.09524ZM20.5953 4.5C20.5953 4.82875 20.3288 5.09524 20.0001 5.09524V6.19048C20.9337 6.19048 21.6906 5.43363 21.6906 4.5H20.5953ZM20.0001 3.90477C20.3288 3.90477 20.5953 4.17126 20.5953 4.5H21.6906C21.6906 3.56638 20.9337 2.80953 20.0001 2.80953V3.90477ZM20.0001 2.80953C19.0665 2.80953 18.3096 3.56638 18.3096 4.5H19.4049C19.4049 4.17126 19.6714 3.90477 20.0001 3.90477V2.80953ZM8.0001 14.1905H9.14296V13.0952H8.0001V14.1905ZM14.8572 14.1905H16.0001V13.0952H14.8572V14.1905ZM22.8811 12.5C22.8811 13.4599 22.1029 14.2381 21.143 14.2381V15.3333C22.7078 15.3333 23.9763 14.0648 23.9763 12.5H22.8811ZM23.9763 12.5C23.9763 10.9352 22.7078 9.66667 21.143 9.66667V10.7619C22.1029 10.7619 22.8811 11.5401 22.8811 12.5H23.9763ZM19.5475 11.809C19.8153 11.1918 20.4296 10.7619 21.143 10.7619V9.66667C19.9778 9.66667 18.978 10.37 18.5428 11.373L19.5475 11.809ZM0.0239142 12.5C0.0239142 14.0648 1.29244 15.3333 2.85725 15.3333V14.2381C1.89732 14.2381 1.11915 13.4599 1.11915 12.5H0.0239142ZM1.11915 12.5C1.11915 11.5401 1.89732 10.7619 2.85725 10.7619V9.66667C1.29244 9.66667 0.0239142 10.9352 0.0239142 12.5H1.11915ZM5.45742 11.373C5.0222 10.37 4.02247 9.66667 2.85725 9.66667V10.7619C3.57067 10.7619 4.18491 11.1918 4.4527 11.809L5.45742 11.373Z" fill="white"/>
</svg>
