<svg width="26" height="25" viewBox="0 0 26 25" fill="none" xmlns="http://www.w3.org/2000/svg">
<path d="M24.3932 2.78571L25.0821 2.74003C25.0638 2.46305 24.8813 2.224 24.619 2.13321C24.3567 2.04241 24.0655 2.11754 23.8798 2.32391L24.3932 2.78571ZM23.4535 7.61657C23.4535 7.23523 23.1444 6.92609 22.763 6.92609C22.3817 6.92609 22.0725 7.23523 22.0725 7.61657H23.4535ZM12.9999 9.07142V9.7619H13.6903V9.07142H12.9999ZM3.20142 2.78571L3.84806 2.54359C3.75171 2.28627 3.51197 2.11056 3.23758 2.09618C2.96319 2.08179 2.70638 2.23146 2.58365 2.4773L3.20142 2.78571ZM9.57129 17.6428L10.0599 18.1307C10.2289 17.9615 10.2983 17.7168 10.2433 17.4841C10.1883 17.2514 10.0168 17.0636 9.78994 16.9879L9.57129 17.6428ZM1.57129 20.7449V20.0544C1.26711 20.0544 0.998761 20.2535 0.910511 20.5446C0.822261 20.8357 0.9349 21.1502 1.18787 21.3191L1.57129 20.7449ZM21.5159 4.3749L21.0037 4.83799L21.2525 5.11314L21.6193 5.05759L21.5159 4.3749ZM23.7042 2.83138C23.7888 4.10759 23.712 4.89875 23.4977 5.50297C23.2885 6.09276 22.9239 6.57316 22.2853 7.18513L23.2407 8.1822C23.9492 7.50338 24.4866 6.8457 24.7992 5.96466C25.1066 5.09805 25.1713 4.08563 25.0821 2.74003L23.7042 2.83138ZM23.4535 8.8061V7.68366H22.0725V8.8061H23.4535ZM23.4535 7.68366V7.61657H22.0725V7.68366H23.4535ZM12.3094 7.92856V9.07142H13.6903V7.92856H12.3094ZM17.9396 2.09523C14.7852 2.09523 12.3094 4.84121 12.3094 7.92856H13.6903C13.6903 5.53167 15.6182 3.47618 17.9396 3.47618V2.09523ZM22.0725 8.8061C22.0725 15.9337 16.0888 22.0952 8.99986 22.0952V23.4762C16.8784 23.4762 23.4535 16.6691 23.4535 8.8061H22.0725ZM2.55479 3.02782C3.44132 5.39556 6.76754 9.7619 12.9999 9.7619V8.38094C7.49522 8.38094 4.59166 4.52959 3.84806 2.54359L2.55479 3.02782ZM2.58365 2.4773C0.888475 5.87289 0.596364 9.18858 1.77582 12.0111C2.95528 14.8337 5.54996 17.0283 9.35264 18.2978L9.78994 16.9879C6.25702 15.8084 4.03663 13.8398 3.05 11.4787C2.06335 9.11753 2.2541 6.22913 3.81919 3.09411L2.58365 2.4773ZM9.08267 17.155C8.09424 18.145 5.2604 20.0544 1.57129 20.0544V21.4354C5.70681 21.4354 8.87486 19.3176 10.0599 18.1307L9.08267 17.155ZM22.028 3.91181C21.0202 2.79722 19.5614 2.09523 17.9396 2.09523V3.47618C19.1545 3.47618 20.2464 4.00045 21.0037 4.83799L22.028 3.91181ZM21.6193 5.05759C22.831 4.87407 24.0164 4.23692 24.9065 3.2475L23.8798 2.32391C23.1952 3.08493 22.2958 3.55843 21.4125 3.69221L21.6193 5.05759ZM1.18787 21.3191C3.78256 23.0516 6.28011 23.4762 8.99986 23.4762V22.0952C6.45135 22.0952 4.25042 21.7035 1.95471 20.1707L1.18787 21.3191Z" fill="white"/>
</svg>
