<svg width="17" height="16" viewBox="0 0 17 16" fill="none" xmlns="http://www.w3.org/2000/svg">
<path fill-rule="evenodd" clip-rule="evenodd" d="M16.5714 1.82067C15.9626 2.12952 15.307 2.33831 14.6193 2.4316C15.3215 1.95174 15.8604 1.19071 16.1143 0.28434C15.4568 0.728729 14.7302 1.052 13.954 1.22531C13.3354 0.471064 12.4512 0 11.4727 0C9.59639 0 8.07417 1.73848 8.07417 3.88257C8.07417 4.18695 8.1033 4.48239 8.16169 4.76688C5.3363 4.60452 2.83173 3.0604 1.15377 0.708687C0.861053 1.28414 0.693659 1.95174 0.693659 2.66273C0.693659 4.00916 1.29385 5.19771 2.20617 5.89429C1.64987 5.8754 1.12451 5.69877 0.665436 5.40996V5.45768C0.665436 7.33949 1.83746 8.90913 3.39372 9.2647C3.10878 9.35582 2.80817 9.40139 2.49784 9.40139C2.27905 9.40139 2.06505 9.37803 1.85778 9.33246C2.29058 10.8744 3.54532 11.9975 5.03349 12.0275C3.87014 13.0695 2.40347 13.6904 0.81121 13.6904C0.53688 13.6904 0.265527 13.6727 0 13.6371C1.50474 14.7368 3.29248 15.38 5.2115 15.38C11.4657 15.38 14.8845 9.46454 14.8845 4.33344C14.8845 4.1646 14.8816 3.99575 14.8757 3.83023C15.5404 3.2826 16.1171 2.59943 16.5714 1.82067Z" fill="#5A5A5C"/>
</svg>
