<svg width="32" height="32" viewBox="0 0 32 32" fill="none" xmlns="http://www.w3.org/2000/svg">
<path d="M16 23C19.866 23 23 19.866 23 16C23 12.134 19.866 9 16 9C12.134 9 9 12.134 9 16C9 19.866 12.134 23 16 23Z" stroke="#0D0E11" stroke-width="2" stroke-linecap="round" stroke-linejoin="round"/>
<path d="M6.97363 22.3661L6.82402 24.6867C6.81328 24.8354 6.83546 24.9847 6.88898 25.1239C6.9425 25.263 7.02604 25.3887 7.13366 25.4919C8.57195 26.8561 10.3124 27.861 12.213 28.4244C12.3562 28.466 12.5068 28.4756 12.6541 28.4523C12.8014 28.4291 12.9417 28.3737 13.0651 28.29L15 27.0002H17L18.9349 28.2901C19.0583 28.3738 19.1986 28.4292 19.3459 28.4524C19.4932 28.4756 19.6438 28.4661 19.787 28.4245C21.6876 27.861 23.4281 26.8562 24.8663 25.4919C24.974 25.3887 25.0575 25.2631 25.111 25.1239C25.1646 24.9848 25.1867 24.8355 25.176 24.6868L25.0264 22.3662L26.0264 20.6342L28.1109 19.6035C28.2451 19.5384 28.3632 19.4446 28.457 19.3286C28.5508 19.2127 28.6178 19.0775 28.6534 18.9327C29.1157 17.005 29.1157 14.9953 28.6533 13.0676C28.6178 12.9228 28.5507 12.7876 28.457 12.6717C28.3632 12.5557 28.2451 12.4619 28.1109 12.3968L26.0265 11.3661L25.0265 9.63407L25.1761 7.31345C25.1868 7.16474 25.1646 7.01549 25.1111 6.87632C25.0576 6.73716 24.9741 6.61151 24.8664 6.50832C23.4282 5.14407 21.6877 4.13922 19.7871 3.57577C19.6439 3.53416 19.4933 3.52463 19.346 3.54785C19.1987 3.57108 19.0584 3.62649 18.935 3.71015L17.0001 4.99997H15.0001L13.0652 3.7101C12.9418 3.62644 12.8015 3.57102 12.6542 3.54779C12.5069 3.52456 12.3563 3.53408 12.2131 3.57569C10.3125 4.13915 8.57206 5.14402 7.13378 6.50829C7.02616 6.61147 6.94261 6.73712 6.88908 6.87629C6.83556 7.01545 6.81338 7.1647 6.82411 7.31341L6.97371 9.63395L5.97371 11.366L3.88919 12.3967C3.75503 12.4618 3.63687 12.5556 3.54311 12.6716C3.44935 12.7875 3.3823 12.9227 3.34674 13.0675C2.88441 14.9952 2.88442 17.0049 3.34677 18.9326C3.38232 19.0774 3.44936 19.2126 3.54312 19.3285C3.63687 19.4445 3.75503 19.5383 3.88919 19.6034L5.97363 20.6341L6.97363 22.3661Z" stroke="#0D0E11" stroke-width="2" stroke-miterlimit="10"/>
</svg>
