<?xml version="1.0" encoding="utf-8"?>
<!-- Generator: Adobe Illustrator 25.4.1, SVG Export Plug-In . SVG Version: 6.00 Build 0)  -->
<svg version="1.1" id="Layer_1" xmlns="http://www.w3.org/2000/svg" xmlns:xlink="http://www.w3.org/1999/xlink" x="0px" y="0px"
	 viewBox="0 0 200 200" style="enable-background:new 0 0 200 200;" xml:space="preserve">
<style type="text/css">
	.st0{fill-rule:evenodd;clip-rule:evenodd;fill:#1E1E1E;}
	.st1{fill:#FFFFFF;}
</style>
<g id="Layer_2_00000054961128798223501160000005968086800258792598_">
	<g id="Layer_1-2">
		<path id="SVGID" class="st0" d="M100,0c55.2,0,100,44.8,100,100s-44.8,100-100,100S0,155.2,0,100S44.8,0,100,0z"/>
		<path id="SVGID-2" class="st1" d="M101.5,141.8c-32,0-57.9-9.2-57.9-21.6c0-6.5,7.1-12.3,18.4-16.4c8.8,5.7,23.6,8.6,40.4,8.6
			c16.4,0,30.9-3.5,39.8-9c10.7,4.1,17.3,9.7,17.3,16C159.4,131.8,133.5,141.8,101.5,141.8z"/>
		<path id="SVGID-3" class="st1" d="M101.8,109.6c-24.2,0-43.9-7.6-43.9-17c0-5.2,6.1-9.9,15.6-13c6.8,3.5,16.9,5.8,28.3,5.8
			s21.6-2.3,28.3-5.8c9.5,3.1,15.6,7.8,15.6,13C145.8,102,126.1,109.6,101.8,109.6z"/>
		<path id="SVGID-4" class="st1" d="M101.7,82.6c-18.7,0-33.9-6.3-33.9-14s15.2-14,33.9-14s33.9,6.3,33.9,14S120.4,82.6,101.7,82.6
			L101.7,82.6z"/>
	</g>
</g>
</svg>
