<?xml version="1.0" encoding="utf-8"?>
<!-- Generator: Adobe Illustrator 25.4.1, SVG Export Plug-In . SVG Version: 6.00 Build 0)  -->
<svg version="1.1" id="Layer_1" xmlns="http://www.w3.org/2000/svg" xmlns:xlink="http://www.w3.org/1999/xlink" x="0px" y="0px"
	 viewBox="0 0 1080 1080" style="enable-background:new 0 0 1080 1080;" xml:space="preserve">
<style type="text/css">
	.st0{fill-rule:evenodd;clip-rule:evenodd;fill:#AC01FC;}
	.st1{fill:#AC01FC;}
</style>
<g>
	<circle class="st0" cx="726.1" cy="211.6" r="103.7"/>
	<circle class="st0" cx="169.1" cy="547.6" r="103.7"/>
	<circle class="st0" cx="911.7" cy="547.6" r="103.7"/>
	<circle class="st0" cx="726.1" cy="868.1" r="103.7"/>
	<path class="st1" d="M644.1,547.6c0-35.8-18.8-67.7-48.9-86.6c-15.4-9.7-31.8-13.4-48.9-18.7c-18.2-5.7-35.3-15.4-50.1-27.4
		c-29.7-24.3-51.3-60.4-51.3-99.5c0-14.7,1.8-52.6,6.3-65.7c4.6-11.8,7.2-24.6,7.2-38c0-57.3-46.4-103.7-103.7-103.7
		C297.5,108,251,154.4,251,211.6c0,20.5,6.4,40.8,17.8,57.8c11.7,17.4,28.5,27.9,46.3,38.1c16.5,9.4,31.1,23.3,44.1,37.1
		c27.3,28.7,48.5,63.1,61.8,100.5c29.4,82.9,17.7,178.1-30.8,251.2c-10.1,15.3-21.8,29.6-34.7,42.6c-10.5,10.7-21,21.8-34.2,29.1
		c-11.9,6.6-22.4,11.7-33,20.6c-62.8,52.5-40.5,156.9,37.9,179.2c9.2,2.6,18.8,3.9,28.4,3.9c35.9,0,69.5-19.7,88.2-50.2
		c23.3-38,11.3-80.6,14.2-122.5c1-14.1,2.7-28,6.1-41.8c7.8-31.7,24.1-61.4,51.4-80.3c15.6-10.8,32.6-19.3,49.8-27.1
		c14.9-6.8,29.8-12.2,42.5-22.8C630.3,607.5,644.1,578.1,644.1,547.6z"/>
</g>
</svg>
