<?xml version="1.0" encoding="utf-8"?>
<!-- Generator: Adobe Illustrator 25.4.1, SVG Export Plug-In . SVG Version: 6.00 Build 0)  -->
<svg version="1.1" id="Layer_1" xmlns="http://www.w3.org/2000/svg" xmlns:xlink="http://www.w3.org/1999/xlink" x="0px" y="0px"
	 viewBox="0 0 200 200" style="enable-background:new 0 0 200 200;" xml:space="preserve">
<style type="text/css">
	.st0{clip-path:url(#SVGID_00000181790063140253231060000005139321469511554229_);}
	.st1{fill:#FFFFFF;}
</style>
<g>
	<g>
		<defs>
			<rect id="SVGID_1_" y="23.9" width="200" height="152.2"/>
		</defs>
		<clipPath id="SVGID_00000160885592968976745560000002306022088025257395_">
			<use xlink:href="#SVGID_1_"  style="overflow:visible;"/>
		</clipPath>
		<g style="clip-path:url(#SVGID_00000160885592968976745560000002306022088025257395_);">
			<path class="st1" d="M10.6,51.3c11.2,0,22.3,0,33.6,0c0,0.7,0,1.4,0,2.1c0,3-0.2,6,0,9c0.5,5.5,1.9,10.8,4.2,15.9
				c2.1,4.6,4.8,8.7,8.3,12.2c4.2,4.4,9.4,7.8,15.4,9.6c0.5,0.2,0.7,0.4,0.7,0.9c-0.2,2.8,0.4,5.5-0.4,8.3c-1.1,4.6-3.7,7.8-7.8,9.6
				c-1.9,0.9-3.9,1.2-6,1.2c-6.7,0-13.6,0-20.4,0c-3.2,0-6.2-0.5-8.8-2.5c-3.9-2.8-5.7-6.9-5.7-11.9c0-13.3,0-26.7,0-40
				c0-0.4,0-0.7,0-1.1c0-1.9-1.2-3-3-3.5c-4.6-1.4-8-4.6-10.1-8.8c0-0.2-0.2-0.5-0.2-0.7C10.6,51.7,10.6,51.5,10.6,51.3z M30.3,81.2
				c0,2.5,1.8,4.4,4.2,4.4c2.3,0,4.4-1.9,4.4-4.4c0-2.5-1.9-4.4-4.4-4.6C32.4,76.8,30.1,78.6,30.3,81.2z"/>
			<path class="st1" d="M67.4,81.2c0,2.1-1.9,4.1-4.1,4.1c-2.1,0-4.1-1.9-4.1-4.2c0-2.1,1.9-4.1,4.1-4.1
				C65.7,77.2,67.8,79.3,67.4,81.2z"/>
			<path d="M30.3,81.2c-0.2-2.7,2.1-4.4,4.2-4.4c2.5,0,4.4,2.1,4.4,4.6s-2.1,4.4-4.4,4.4C32,85.7,30.3,83.7,30.3,81.2z"/>
			<path d="M194.3,127.1L194.3,127.1C194.5,127.1,194.5,127.1,194.3,127.1c0.4,0,0.4,0,0.5,0c0.2,0,0.5-0.2,0.7-0.2
				c0.2-0.2,0.2-0.2,0.4-0.4l0,0c1.9-1.2,1.8-3.2,1.8-5.1c0-8.8,0-17.9,0-26.7c0-2.8-0.4-5.7-1.2-8.5c-3.2-9.7-12.2-16.8-22.8-16.8
				c-11.3-0.2-22.7-0.2-34-0.2c-19.5,0-38.9,0-58.2-0.2c-0.2,0-0.5,0-0.7,0c-0.4,0-0.5-0.2-0.9-0.2c-0.4-0.9,0-1.4,0.9-1.8
				c0.4-0.2,0.5-0.2,0.9-0.4c5.3-2.7,9-7.1,11.3-12.6c0.9-1.9,1.6-4.1,1.8-6.2c0-2.5-1.2-3.9-3.7-3.9c-4.8,0-9.6,0-14.3-0.2
				c-0.5,0-0.9,0-1.4,0c0-0.5,0-0.9,0-1.4c0-2.3,0-4.6,0-6.7c0-1.1-0.2-2.1-0.4-3c-1.2-4.4-5.7-7.4-10.8-6.4
				c-3.5,0.7-6.7,4.1-6.9,7.6C57,36.8,57,39.6,57,42.5c0,0.5,0,1.1,0,1.4H40.2c0-0.5,0-1.1,0-1.6c0-2.5,0-5,0-7.4
				c-0.2-6-6-10.4-12.2-8.3c-3.7,1.2-6.2,5-6.2,9c0,2.3,0,4.6,0,6.9c0,0.5,0,0.9,0,1.4c-0.5,0-1.1,0-1.6,0c-4.8,0-9.6,0-14.3,0.2
				c-2.3,0-3.7,1.4-3.5,3.7c0.2,1.4,0.5,2.8,0.9,4.1c2.1,6.5,6.2,11.7,12.4,14.9c1.2,0.7,1.6,1.2,1.6,2.7c0,12.6,0,25,0,37.5
				c0,1.8,0.2,3.5,0.7,5.1c2.5,8.1,7.8,13.3,15.9,14.9c0.2,0,0.4,0.2,0.5,0.2h0.2c0,0,0.2,0,0.4,0c0.2,0,0.4,0,0.4,0.2l0,0
				c0.2,0,0.4,0,0.5,0c0.7,0,1.2,0,1.9,0c0.2,0,0.4,0,0.5,0c1.1,0,2.1,0,3.2,0c0.4,0,0.5,0,0.9,0h12.9l0,0c0.2,0,0.4,0,0.5,0l0,0
				c1.8,0,2.8,0.9,3.7,2.3c0.4,0.9,0.9,1.9,0.9,3c0,0.2,0,0.2,0,0.4c0,0.7,0,1.6,0,2.3c0,0.2,0,0.2,0,0.4c0.2,2.8,0.2,5.8,0.4,8.7
				c0.2,4.4,0.4,8.8,0.5,13.3c0.2,3.4,0.2,6.7,0.2,10.1c0.2,3.4,2.5,5.8,5.5,6c7.1,0,14,0,21.1,0c2.5,0,4.6-1.8,5.1-4.2
				c0.7-3,1.4-6.2,1.9-9.2c0.7-3.2,1.4-6.2,2.1-9.4c0.4,0,0.4-0.2,0.5-0.2c14.5,0,28.8,0,43.4,0c0.9,0,1.1,0.4,1.2,1.1
				c0.4,1.9,0.9,3.9,1.2,6c0.9,3.7,1.6,7.6,2.5,11.3c0.5,2.5,2.8,4.6,5.3,4.8c7.1,0,14,0,21.1,0c2.8,0,5.3-2.5,5.5-5.5
				c0.2-3.5,0.4-7.1,0.5-10.8c0.2-4.4,0.5-8.8,0.7-13.5c0.2-2.7,0.2-5.1,0.4-7.8c0.2-4.6,0.5-9,0.7-13.6c0.4-5,0.5-10.1,0.7-15
				c0.2-4.2,0.5-8.5,0.5-12.7c0-6.2-2.1-11.7-5.8-16.3c-0.2-0.2-0.4-0.5-0.5-0.9c0.4,0,0.5,0,0.7,0c7.6,1.1,13.6,8.1,13.6,15.9
				c0,9.4,0,18.6,0,28c0,1.8,0.2,3.5,1.6,4.8l0,0C192.4,126.9,193.3,127.1,194.3,127.1L194.3,127.1z M63.9,35.4
				c0-1.1,1.1-2.1,2.1-2.1c0.9,0,2.1,0.7,2.1,1.8c0,3,0,5.8,0,8.8h-4.2C63.9,40.9,63.9,38.1,63.9,35.4z M63.5,77.2
				c2.1,0,4.2,2.1,4.1,4.2c0,2.1-1.9,4.1-4.1,4.1s-4.1-1.9-4.1-4.2C59.5,79.1,61.4,77.2,63.5,77.2z M28.7,35.9c0-0.5,0-1.1,0.4-1.4
				c0.4-0.9,1.4-1.4,2.1-1.2c1.1,0.2,1.8,1.1,1.8,2.1c0,2.7,0,5.3,0,8c0,0.2,0,0.2-0.2,0.5h-3.9c0-0.4-0.2-0.5-0.2-0.9
				C28.7,40.7,28.7,38.2,28.7,35.9z M64.8,119.1c-1.9,0.9-3.9,1.2-6,1.2c-6.7,0-13.6,0-20.4,0c-3.2,0-6.2-0.5-8.8-2.5
				c-3.9-2.8-5.7-6.9-5.7-11.9c0-13.3,0-26.7,0-40c0-0.4,0-0.7,0-1.1c0-1.9-1.2-3-3-3.5c-4.6-1.4-8-4.6-10.1-8.8
				c0-0.4-0.2-0.7-0.2-0.9c0,0,0-0.2,0-0.4h33.6c0,0.7,0,1.4,0,2.1c0,3-0.2,6,0,9c0.5,5.5,1.9,10.8,4.2,15.9
				c2.1,4.6,4.8,8.7,8.3,12.2c4.2,4.4,9.4,7.8,15.4,9.6c0.5,0.2,0.7,0.4,0.7,0.9c-0.2,2.8,0.4,5.5-0.4,8.3
				C71.7,114,69,117.2,64.8,119.1z M173.8,97.2c-0.4,4.4-0.5,8.8-0.7,13.3c-0.4,5.7-0.5,11.3-0.9,17c-0.4,6.4-0.7,12.9-1.1,19.3
				c-0.2,3.9-0.5,7.8-0.7,11.7c-0.2,2.5-0.4,4.8-0.5,7.4h-16.3c-1.9-7.6-3.4-15.2-5.3-23c-0.5,0-0.9-0.2-1.2-0.2
				c-18.4,0-36.8,0-55,0c-1.4,0-1.4,0.2-1.8,1.4c-0.7,3.4-1.6,6.9-2.3,10.3c-0.7,3.2-1.4,6.5-2.1,9.7c-0.4,1.6-0.4,1.6-1.8,1.6
				c-4.6,0-9,0-13.5,0c-1.4,0-1.4,0-1.4-1.6c0-8.8-0.2-17.7-0.2-26.4c0-3.9,0-7.8-0.2-11.7c0-0.9,0.2-1.4,1.1-1.8
				c4.4-2.7,7.6-6.5,9.2-11.7c0.5-1.6,0.7-3.2,0.7-4.8c0-9.6,0-19.1,0-28.7c0-0.4,0-0.7,0-1.1c0-0.7,0.4-0.9,0.9-0.9
				c0.4,0,0.7,0,1.1,0c5.8,0,11.5,0,17.3,0l0,0h55.2v0.2c2.8,0,5.5,0,8.3,0c0.9,0,1.6,0.4,2.1,1.1c1.2,1.4,2.3,2.7,3.5,3.9
				C172.2,86.4,174.3,91.3,173.8,97.2z"/>
			<path d="M194.5,129.4L194.5,129.4L194.5,129.4h-0.2c-1.1,0-2.5-0.2-3.9-0.9l-0.9-0.4l-0.2-0.5c-1.6-1.8-1.8-4.1-1.8-6
				c0-8.3,0-16.6,0-25v-3c0-5-2.8-9.6-7.1-12c2.3,4.2,3.5,8.7,3.4,13.5c0,3-0.2,6-0.4,8.8c0,1.4-0.2,2.7-0.2,4.1l-0.2,5.3
				c-0.2,3.4-0.4,6.5-0.5,9.9c-0.2,2.7-0.4,5.1-0.5,7.8c-0.2,1.9-0.2,3.9-0.4,5.8c0,1.4-0.2,2.8-0.2,4.2c0,1.2-0.2,2.3-0.2,3.5
				c-0.2,2.7-0.4,5.1-0.4,7.8l-0.5,8.1c-0.2,2.7-0.4,5.5-0.4,8.1c-0.2,4.1-3.7,7.4-7.6,7.4c-7.1,0-14,0-21.1,0
				c-3.5,0-6.7-2.8-7.4-6.4c-0.5-2.5-1.1-5.1-1.6-7.6l-1.1-4.8c-0.4-1.4-0.5-2.7-0.9-4.1c-10.8,0-21.4,0-32,0h-9.4l-0.4,1.2
				c-0.5,2.1-1.1,4.2-1.4,6.5c-0.2,1.2-0.5,2.3-0.7,3.5c-0.4,1.9-0.9,3.7-1.2,5.7c-0.9,3.5-3.9,6-7.3,6c-3.7,0-7.3,0-10.8,0
				c-3.5,0-6.9,0-10.3,0c-4.2,0-7.6-3.5-7.6-8.1c0-1.6,0-3.4-0.2-5c0-1.8,0-3.4-0.2-5.1c0-3-0.2-6-0.4-9l-0.5-13.3v-0.2
				c0-0.7,0-1.4,0-2.1v-0.2v-0.4c0-0.4-0.2-0.9-0.7-2.1c-0.4-0.7-0.9-1.1-1.8-1.1h-0.2c-0.2,0-0.4,0-0.4,0h-1.9h-11
				c-0.2,0-0.5,0-0.7,0h-0.2h-0.7c-0.9,0-1.8,0-2.7,0l0,0l0,0c-0.2,0-0.2,0-0.4,0c-0.7,0-1.4,0-1.9,0l-1.4-0.2l-0.9-0.4
				c-8.8-1.8-14.9-7.3-17.5-16.3c-0.5-1.6-0.7-3.5-0.7-5.8c0-12,0-24.6,0-37.5c0-0.4,0-0.5,0-0.5s-0.2,0-0.4-0.2
				c-6.5-3.4-11-8.7-13.5-16.1c-0.5-1.4-0.9-3-1.1-4.6c-0.2-1.6,0.4-3.2,1.4-4.2s2.7-1.8,4.2-1.8c3.5,0,7.1,0,10.6,0h3.2v-0.7
				c0-1.9,0-3.9,0-5.7c0-5.1,3-9.6,7.6-11.2c3.5-1.2,7.3-0.7,10.3,1.4c2.8,2.1,4.6,5.3,4.8,8.8c0,1.8,0,3.5,0,5.1c0,0.5,0,1.1,0,1.8
				H55c0-0.7,0-1.4,0-2.1c0-1.9,0-3.9,0.2-5.8c0.2-4.6,3.9-8.7,8.5-9.7c5.8-1.2,11.7,2.3,13.3,8c0.4,1.1,0.4,2.1,0.5,3.5
				c0,1.6,0,3,0,4.6c0,0.5,0,1.1,0,1.4h5.1c2.8,0,5.7,0,8.5,0c1.8,0,3.4,0.5,4.4,1.6c1.1,1.1,1.6,2.7,1.4,4.4c0,2.7-1.1,5-1.9,7.1
				c-2.1,5-5.3,8.8-9.4,11.7h13.5c13.6,0,27.1,0,40.7,0c12.6,0,23.2,0,34,0.2C185.1,66.7,195,74,198.6,85c0.9,2.7,1.2,5.7,1.4,9.2
				c0,5.5,0,11,0,16.5c0,3.4,0,6.9,0,10.3c0,1.4,0,3.2-0.9,4.8L194.5,129.4z M62.5,135.9l0.5,12.7c0.2,3,0.2,6,0.4,9
				c0,1.8,0,3.4,0.2,5.1c0,1.6,0,3.4,0.2,5c0,2.1,1.6,3.7,3.4,3.9c6.5,0,13.5,0,21.1,0c1.4,0,2.8-1.1,3.2-2.7
				c0.4-1.9,0.9-3.7,1.2-5.7c0.2-1.2,0.5-2.5,0.7-3.5c0.5-2.1,1.1-4.2,1.4-6.5l0.9-4.1l1.4-0.4c0.2,0,0.5-0.2,0.9-0.2h10.6
				c11,0,21.8,0,32.7,0l0,0c1.8,0,3,1.1,3.4,2.8c0.4,1.6,0.7,3.2,1.1,4.6l1.1,4.8c0.5,2.7,1.1,5.1,1.6,7.8c0.4,1.6,1.8,3,3.4,3
				c7.1,0,14,0,21.1,0c1.6,0,3.2-1.6,3.4-3.4c0.2-2.7,0.4-5.5,0.4-8.1l0.5-8.1c0.2-2.7,0.4-5.1,0.4-7.8c0-1.2,0.2-2.3,0.2-3.5
				c0-1.4,0.2-2.8,0.2-4.2c0.2-1.9,0.2-3.9,0.4-5.8c0.2-2.7,0.4-5.1,0.5-7.8c0.2-3.4,0.4-6.5,0.5-9.9l0.2-5.3c0-1.4,0.2-2.7,0.2-4.1
				c0.2-2.8,0.4-5.8,0.4-8.7c0-5.3-1.8-10.4-5.3-14.9c-0.2-0.2-0.4-0.5-0.5-0.7l-2.3-3.4l3.9-0.4c0.2,0,0.5,0,0.9,0
				c8.5,1.2,15.6,9.2,15.6,18.1v3c0,8.3,0,16.6,0,25c0,1.4,0.2,2.3,0.7,3c0.4,0.2,0.7,0.2,1.1,0.2h0.7h0.2c0,0,0,0,0.2,0h0.2
				c0.9-0.5,0.9-1.2,0.9-3.2c0-3.5,0-6.9,0-10.4c0-5.5,0-11,0-16.5c0-3-0.4-5.5-1.1-7.8c-3-9-11.3-15.2-20.7-15.4
				c-10.8-0.2-21.4-0.2-34-0.2c-13.6,0-27.1,0-40.7,0H81.9h-0.5c-0.4,0-0.5,0-0.9,0c-0.4,0-0.5-0.2-0.9-0.2l-1.4-0.4l-0.4-1.2
				c-0.7-1.9,0.2-3.7,2.1-4.4c0.2-0.2,0.5-0.2,0.7-0.4c4.6-2.5,8.1-6.2,10.4-11.5c0.7-1.8,1.4-3.5,1.6-5.3c0-0.7,0-1.1-0.4-1.2
				c-0.2-0.2-0.7-0.4-1.2-0.4c-2.8,0-5.7,0-8.5,0h-5.8c-0.4,0-0.7,0-1.1,0l-2.5-0.2l-0.2-2.5c0-0.4,0-0.7,0-1.1c0-0.7,0-1.6,0-2.3
				c0-1.4,0-3,0-4.4c0-0.7,0-1.8-0.4-2.5c-0.9-3-4.1-5.7-8.3-5c-2.7,0.5-5.1,3.2-5.3,5.7c-0.2,1.8-0.2,3.7-0.2,5.7
				c0,0.9,0,1.8,0,2.7c0,0.4,0,0.7-0.2,1.1L58.6,46H37.9v-3.7c0-0.7,0-1.6,0-2.3c0-1.6,0-3.4,0-5c0-2.3-1.1-4.2-3-5.5
				c-1.8-1.2-4.2-1.6-6.4-0.9c-2.8,0.9-4.6,3.7-4.6,6.9c0,1.9,0,3.9,0,5.8v1.2c0,0.4,0,0.7,0,1.1l-0.2,2.5h-7.3c-3.5,0-7.1,0-10.6,0
				c-0.5,0-0.9,0.2-1.2,0.4c-0.2,0.2-0.2,0.7-0.2,1.1c0,1.2,0.5,2.5,0.9,3.5c1.9,6.2,5.8,10.8,11.2,13.5c1.9,1.1,2.8,2.5,2.8,4.6
				c0,12.9,0,25.5,0,37.5c0,1.8,0.2,3.4,0.5,4.6c2.3,7.4,6.9,11.9,14.3,13.3c0.4,0,0.7,0.2,0.9,0.4l0,0c0,0,0,0,0.2,0h0.2
				c0.2,0,0.2,0,0.4,0c0.5,0,1.1,0,1.8,0c0,0,0.2,0,0.4,0c0.9,0,1.8,0,2.8,0h0.4c0.4,0,0.7,0,1.1,0h15v0.2c1.8,0.4,3.2,1.6,4.1,3.4
				c0.4,0.9,1.1,2.3,1.1,3.7c0,0.2,0,0.4,0,0.7c0,0.7,0,1.4,0,2.1C62.5,135.6,62.5,135.8,62.5,135.9z M34.2,129.4
				C34.2,129.4,34.3,129.4,34.2,129.4L34.2,129.4z M70.6,168.1c-2.7,0-3.5-1.1-3.5-3.7l-0.2-28c0-3.4,0-6.9-0.2-10.3
				c0-1.6,0.7-2.8,2.1-3.7c4.1-2.5,6.9-6,8.3-10.4c0.4-1.2,0.5-2.7,0.5-4.2c0-7.3,0-14.3,0-21.6v-7.3v-0.2c0-0.2,0-0.4,0-0.7
				c0-1.2,0.4-1.9,0.9-2.3c0.4-0.4,1.1-0.9,2.3-0.9h4.4c4.1,0,8.1,0,12.4,0h1.4h57.3v0.4c1.9,0,4.1,0,6,0l0,0c1.6,0,2.8,0.5,3.7,1.8
				c1.1,1.2,2.3,2.5,3.5,3.9c4.6,4.6,6.7,10.3,6.2,16.6c-0.2,3-0.4,6.2-0.5,9.2l-1.1,20.9c-0.4,6.4-0.7,12.9-1.1,19.3
				c-0.2,3.2-0.4,6.4-0.5,9.7l-0.7,11.5h-19.8l-0.4-1.6c-1.1-4.1-1.9-8.3-2.8-12.4c-0.7-3-1.4-6-2.1-9c-18.1,0-36.1,0-54.3,0
				c-0.5,2.1-0.9,4.2-1.4,6.4l-1.1,4.4c-0.7,3-1.4,6-2.1,9.2c-0.5,2.5-1.4,3.2-3.9,3.2L70.6,168.1z M71.2,126.2
				c0,3.5,0,6.9,0.2,10.3v27.3h12.6c0.7-3,1.4-6,1.9-9l1.1-4.4c0.5-2.1,1.1-4.2,1.4-6.5c0.5-2.1,1.2-3.2,3.7-3.2c18.4,0,36.8,0,55,0
				c0.4,0,0.7,0,1.1,0l1.9,0.2l0.4,1.6c0.9,3.5,1.6,7.1,2.5,10.6c0.7,3.5,1.6,7.1,2.5,10.6h12.7l0.5-7.4c0.2-3.2,0.4-6.4,0.5-9.6
				c0.4-6.4,0.7-12.9,1.1-19.3l1.1-20.9c0.2-3.2,0.4-6.2,0.5-9.4c0.4-5.1-1.2-9.4-5-13.3c-1.2-1.4-2.7-2.7-3.7-4.1
				c-0.2-0.2-0.2-0.2-0.5-0.2c-2.8,0-5.5,0-8.3,0h-2.1v-0.2H99.3c-4.6,0-9.2,0-13.8,0h-3.2v7.1c0,7.3,0,14.3,0,21.6
				c0,1.9-0.4,3.9-0.9,5.5C79.5,118.9,76.1,123.2,71.2,126.2z M80.7,79.3L80.7,79.3L80.7,79.3z M38.4,122.5c-4.1,0-7.3-0.9-10.1-3
				c-4.4-3.2-6.5-7.8-6.7-13.6c0-9.4,0-18.8,0-28V65.5c0-0.2,0-0.5,0-0.7c0-0.5-0.2-1.1-1.4-1.4c-5-1.6-8.7-5-11.3-9.9
				c-0.2-0.4-0.4-0.7-0.4-1.1c-0.2-0.5-0.2-1.1,0-1.2l0.4-1.8l1.8-0.2h35.8v4.2c0,0.9,0,1.9,0,2.8c0,2.1,0,4.1,0.2,6
				c0.4,5,1.8,10.1,4.1,15c1.9,4.4,4.6,8.5,7.8,11.7c4.4,4.6,9,7.4,14.3,9c2.3,0.7,2.3,2.5,2.3,3c0,0.9,0,1.8,0,2.7
				c0,1.9,0.2,3.9-0.4,6c-1.1,5.1-4.2,8.8-9,11.2c-1.9,0.9-4.1,1.4-6.9,1.4h-7.4C47.1,122.3,42.8,122.3,38.4,122.5L38.4,122.5z
				 M14,53.5c1.9,2.8,4.4,4.8,7.6,5.7c3.7,1.2,4.4,3.9,4.4,5.5c0,0.4,0,0.7,0,0.9v12.2c0,9.4,0,18.6,0,28c0,4.2,1.6,7.6,4.8,10.1
				c1.9,1.4,4.4,2.1,7.6,2.1c4.2,0,8.7,0,12.9,0h7.4c2.1,0,3.7-0.4,5.1-0.9c3.5-1.6,5.8-4.2,6.5-8.1c0.4-1.6,0.4-3.2,0.2-5
				c0-0.5,0-1.2,0-1.8c-5.7-1.8-10.8-5.1-15.4-9.9c-3.5-3.5-6.4-8-8.7-12.9c-2.5-5.5-3.9-11-4.4-16.6c-0.2-2.1-0.2-4.4-0.2-6.4
				c0-0.9,0-1.8,0-2.7H14V53.5z M63.5,87.6L63.5,87.6c-1.6,0-3.2-0.7-4.4-1.9c-1.2-1.2-1.8-2.8-1.8-4.4c0-3.4,2.8-6.2,6.2-6.2l0,0
				c1.8,0,3.5,0.9,4.6,2.3c1.1,1.2,1.6,2.8,1.4,4.2C69.6,84.8,66.7,87.6,63.5,87.6z M63.4,79.3c-0.9,0-1.8,0.9-1.8,1.9
				c0,0.4,0.2,0.9,0.5,1.2c0.4,0.4,0.9,0.7,1.4,0.7c0.9,0,1.8-0.9,1.8-1.9v-0.2c0-0.4-0.2-0.7-0.4-1.1
				C64.6,79.6,63.9,79.3,63.4,79.3L63.4,79.3z M34.5,46.2h-7.4l-0.4-1.9c0-0.2-0.2-0.5-0.2-1.1c0-2.5,0-4.8,0-7.3
				c0-0.9,0.2-1.8,0.5-2.3c0.7-1.8,2.8-2.8,4.6-2.5c2.1,0.4,3.5,2.1,3.5,4.2s0,4.2,0,6.2v1.8c0,0.5-0.2,0.9-0.2,1.1L34.5,46.2z
				 M31,35.4L31,35.4L31,35.4L31,35.4z M70.3,46h-8.5v-4.6c0-2.1,0-4.1,0-6c0-2.3,1.8-4.1,4.1-4.2c1.1,0,2.3,0.4,3.2,1.1
				c0.9,0.7,1.2,1.8,1.4,2.8c0,2.1,0,4.2,0,6.4L70.3,46z"/>
			<path class="st1" d="M168.3,82.3c-1.2-1.2-2.5-2.7-3.5-3.9c-0.5-0.7-1.2-1.1-2.1-1.1c-1.9,0-3.9,0-5.7,0v-0.2h-53.3
				c-0.5,0-0.9,0-1.4,0c-6.9,0-13.8,0-20.7,0c-0.4,0-0.7,0-1.1,0c-0.7,0-0.9,0.4-0.9,0.9c0,0.4,0,0.7,0,1.1c0,9.6,0,19.1,0,28.7
				c0,1.6-0.2,3.4-0.7,4.8c-1.6,5-4.6,8.8-9.2,11.7c-0.7,0.5-1.1,0.9-1.1,1.8c0,3.9,0,7.8,0.2,11.7c0,8.8,0.2,17.7,0.2,26.4
				c0,1.4,0,1.6,1.4,1.6c4.6,0,9,0,13.5,0c1.4,0,1.4,0,1.8-1.6c0.7-3.2,1.4-6.5,2.1-9.7c0.7-3.4,1.6-6.9,2.3-10.3
				c0.4-1.4,0.4-1.4,1.8-1.4c18.4,0,36.8,0,55,0c0.4,0,0.9,0,1.2,0.2c1.8,7.8,3.4,15.4,5.3,23c5.5,0,10.8,0,16.3,0
				c0.2-2.7,0.4-5,0.5-7.4c0.2-3.9,0.5-7.8,0.7-11.7c0.4-6.4,0.7-12.9,1.1-19.3c0.4-5.7,0.5-11.3,0.9-17c0.2-4.4,0.4-8.8,0.7-13.3
				C174.3,91.3,172.2,86.4,168.3,82.3z"/>
			<path d="M108.7,101.2c8,0,14.5-6.5,14.5-14.7s-6.4-14.9-14.5-14.9c-8,0-14.5,6.5-14.5,14.7S100.7,101.2,108.7,101.2z"/>
			<path d="M150.3,130.4c6.7,0,12.2-5.5,12.2-12.4s-5.5-12.4-12.2-12.4c-6.7,0-12.2,5.5-12.2,12.4
				C138.1,125,143.5,130.4,150.3,130.4z"/>
			<path d="M109,147.4c6.7-0.2,13.5,0.7,20,1.6c0.2,0,0.4,0,0.5,0c0.2-1.1,0.2-1.9,0.2-3c0-11-8.7-19.8-19.5-19.8S90.8,135,90.8,146
				c0,1.9,0.4,3.7,0.7,5.5C96.1,147.1,103.2,147.6,109,147.4z"/>
			<path d="M118.2,70.8c-0.5,0-0.9,0-1.2-0.2c-1.8,1.9-2.7,4.1-2.7,6.5c0,6.5,7.3,11.9,16.3,11.9s16.3-5.3,16.3-11.9
				c0-2.3-0.9-4.6-2.5-6.4C144.4,70.8,118.2,70.8,118.2,70.8z"/>
			<path class="st1" d="M59.5,81.2c-0.2-2.7,2.1-4.4,4.2-4.4c2.5,0,4.4,2.1,4.4,4.6s-2.1,4.4-4.4,4.4C61.2,85.7,59.5,83.7,59.5,81.2
				z"/>
			<path class="st1" d="M33.3,41.9c-1.9,0-3.9,0-5.8,0c0-0.4-0.2-0.7-0.2-1.1c0-3,0-2.1,0-5.3c0-0.7,0.2-1.4,0.4-1.9
				c0.5-1.1,2.1-1.8,3.2-1.6c1.6,0.4,2.8,1.4,2.8,3c0,3.4,0,2.8,0,6.4C33.6,41.4,33.5,41.6,33.3,41.9z"/>
			<path class="st1" d="M69,41.9c-1.9,0-3.9,0-5.8,0c0-0.4-0.2-0.7-0.2-1.1c0-3,0-2.1,0-5.3c0-0.7,0.2-1.4,0.4-1.9
				c0.5-1.1,2.1-1.8,3.2-1.6c1.6,0.2,2.7,1.4,2.7,2.8c0,3.4,0,2.8,0,6.4C69.2,41.4,69,41.6,69,41.9z"/>
		</g>
	</g>
</g>
</svg>
