<?xml version="1.0" encoding="utf-8"?>
<!-- Generator: Adobe Illustrator 25.4.1, SVG Export Plug-In . SVG Version: 6.00 Build 0)  -->
<svg version="1.1" id="Layer_1" xmlns="http://www.w3.org/2000/svg" xmlns:xlink="http://www.w3.org/1999/xlink" x="0px" y="0px"
	 viewBox="0 0 200 200" style="enable-background:new 0 0 200 200;" xml:space="preserve">
<style type="text/css">
	.st0{fill-rule:evenodd;clip-rule:evenodd;fill:#633001;}
	.st1{fill:#FEDC90;}
	.st2{fill-rule:evenodd;clip-rule:evenodd;fill:#D1884F;}
	.st3{fill:#633001;}
</style>
<g>
	<path class="st0" d="M36.7,31.2C33.6,15,46.1,0,62.3,0c14.3,0,26.2,11.8,26.2,26.2v32.4c3.7,0,7.5-0.6,11.2-0.6
		c3.7,0,6.9,0,10.6,0.6V26.2c0-14.3,11.8-26.2,26.2-26.2c16.2,0,28.7,15,26.2,31.2l-6.9,38c24.3,10.6,43,29.3,43,52.4v14.3
		c0,19.3-12.5,35.5-30.6,46.1c-18.1,11.2-41.8,17.5-68.6,17.5s-50.5-6.2-68.6-17.5c-17.5-10.6-29.9-26.8-29.9-46.1v-14.3
		c0-23.1,18.1-41.8,42.4-52.4L36.7,31.2z M146.4,74.2l8.1-44.9c1.9-11.2-6.2-21.8-18.1-21.8c-10,0-18.1,8.1-18.1,18.1v41.2
		c-2.5-0.6-5.6-0.6-8.1-0.6c-3.7,0-6.9-0.6-10.6-0.6c-3.7,0-7.5,0-11.2,0.6c-2.5,0-5.6,0.6-8.1,0.6V26.2c0-10-8.1-18.1-18.1-18.1
		c-11.2,0-20,10.6-17.5,21.8l8.1,44.9c-26.2,10-43.6,27.4-43.6,47.4v14.3c0,30.6,40.5,55.5,90.4,55.5s90.4-24.9,90.4-55.5v-14.3
		C190.7,101.6,173.3,84.2,146.4,74.2z"/>
	<path class="st1" d="M190.7,135.9c0,30.6-40.5,55.5-90.4,55.5S9.9,166.5,9.9,135.9v-14.3h181.4v14.3H190.7z"/>
	<path class="st2" d="M44.8,29.9C42.3,18.7,51.1,8.1,62.3,8.1c10,0,18.1,8.1,18.1,18.1v41.2c6.2-0.6,12.5-1.2,19.3-1.2
		c6.2,0,12.5,0.6,18.7,1.2V26.2c0-10,8.1-18.1,18.1-18.1c11.2,0,20,10.6,18.1,21.8l-8.1,44.9c26.2,10,44.3,27.4,44.3,47.4
		c0,30.6-40.5,55.5-90.4,55.5S9.9,152.8,9.9,122.2c0-20,17.5-37.4,43.6-47.4L44.8,29.9z"/>
	<path class="st3" d="M74.7,117.8c0,8.1-4.4,15-10,15s-10-6.9-10-15s4.4-15,10-15S74.7,109.7,74.7,117.8z"/>
	<path class="st3" d="M144,117.8c0,8.1-4.4,15-10,15s-10-6.9-10-15s4.4-15,10-15C139.6,102.9,144,109.7,144,117.8z"/>
</g>
</svg>
