<?xml version="1.0" encoding="utf-8"?>
<!-- Generator: Adobe Illustrator 25.4.1, SVG Export Plug-In . SVG Version: 6.00 Build 0)  -->
<svg version="1.1" id="Layer_1" xmlns="http://www.w3.org/2000/svg" xmlns:xlink="http://www.w3.org/1999/xlink" x="0px" y="0px"
	 viewBox="0 0 200 200" style="enable-background:new 0 0 200 200;" xml:space="preserve">
<style type="text/css">
	.st0{fill:#8247E5;}
</style>
<g>
	<path class="st0" d="M151,66.2c-3.6-2.1-8.3-2.1-12.4,0l-28.9,17L90.2,94.1l-28.4,17c-3.6,2.1-8.3,2.1-12.4,0L27.3,97.7
		c-3.6-2.1-6.2-6.2-6.2-10.8V61.1c0-4.1,2.1-8.3,6.2-10.8l22.2-12.9c3.6-2.1,8.3-2.1,12.4,0L84,50.8c3.6,2.1,6.2,6.2,6.2,10.8v17
		l19.6-11.3V49.7c0-4.1-2.1-8.3-6.2-10.8L62.4,14.7c-3.6-2.1-8.3-2.1-12.4,0L7.7,39.4c-4.1,2.1-6.2,6.2-6.2,10.3v48.5
		c0,4.1,2.1,8.3,6.2,10.8l41.8,24.2c3.6,2.1,8.3,2.1,12.4,0l28.4-16.5l19.6-11.3l28.4-16.5c3.6-2.1,8.3-2.1,12.4,0l22.2,12.9
		c3.6,2.1,6.2,6.2,6.2,10.8v25.8c0,4.1-2.1,8.3-6.2,10.8L151,162.1c-3.6,2.1-8.3,2.1-12.4,0l-22.2-12.9c-3.6-2.1-6.2-6.2-6.2-10.8
		v-16.5l-19.6,11.3v17c0,4.1,2.1,8.3,6.2,10.8l41.8,24.2c3.6,2.1,8.3,2.1,12.4,0l41.8-24.2c3.6-2.1,6.2-6.2,6.2-10.8v-49
		c0-4.1-2.1-8.3-6.2-10.8L151,66.2z"/>
</g>
</svg>
