<?xml version="1.0" encoding="utf-8"?>
<!-- Generator: Adobe Illustrator 25.4.1, SVG Export Plug-In . SVG Version: 6.00 Build 0)  -->
<svg version="1.1" id="Layer_1" xmlns="http://www.w3.org/2000/svg" xmlns:xlink="http://www.w3.org/1999/xlink" x="0px" y="0px"
	 viewBox="0 0 200 200" style="enable-background:new 0 0 200 200;" xml:space="preserve">
<style type="text/css">
	.st0{fill:url(#SVGID_1_);}
	.st1{fill:#FFFFFF;}
</style>
<g id="Layer_2_00000022556804211028835800000014286756816703023246_">
	<g id="Layer_1-2">
		
			<linearGradient id="SVGID_1_" gradientUnits="userSpaceOnUse" x1="100.255" y1="-400.3134" x2="100.255" y2="-202.8234" gradientTransform="matrix(1 0 0 1 0 402)">
			<stop  offset="0" style="stop-color:#4FA89B"/>
			<stop  offset="1" style="stop-color:#6ACEBB"/>
		</linearGradient>
		<circle class="st0" cx="100.3" cy="100.4" r="98.7"/>
		<path class="st1" d="M51.7,130.1V83.6l35.2,26.5v19.9h9v-21.8c0-1.6-0.8-3.2-2.1-4.2L51.1,71.9c-2.3-1.7-5.6-1.2-7.4,1.1
			c-0.7,0.9-1,2-1,3.1v54H51.7z M149.1,130.1V83.6l-35.2,26.5v19.9h-9v-21.8c0-1.6,0.8-3.2,2.1-4.2l42.7-32.2
			c2.3-1.7,5.6-1.2,7.4,1.1c0.7,0.9,1,2,1,3.1v54H149.1z"/>
	</g>
</g>
</svg>
