<?xml version="1.0" encoding="utf-8"?>
<!-- Generator: Adobe Illustrator 25.4.1, SVG Export Plug-In . SVG Version: 6.00 Build 0)  -->
<svg version="1.1" id="Layer_1" xmlns="http://www.w3.org/2000/svg" xmlns:xlink="http://www.w3.org/1999/xlink" x="0px" y="0px"
	 viewBox="0 0 200 200" style="enable-background:new 0 0 200 200;" xml:space="preserve">
<style type="text/css">
	.st0{fill:#F5AC37;}
</style>
<g>
	<path class="st0" d="M138,120L138,120c-1-0.1-2.1-0.1-3.1,0H67c-0.9,0-1.2,0-1.2,1.2v21.2c0,1,0,1.2,1.2,1.2h31.3
		c1.5,0.1,3,0,4.5-0.3c4.5-0.3,9-1.3,13.3-2.9c1.5-0.5,3.1-1.2,4.5-2.1h0.4c7.3-3.8,13.3-9.8,17.1-17.2
		C138.1,121.1,138.5,120.2,138,120z"/>
	<path class="st0" d="M67,81.5h70.6c0,0,0.6-0.1,0.7-0.5H138c0.1-0.3,0.1-0.6,0-0.9c-0.6-1.4-1.4-2.6-2.2-3.9
		c-1.3-2.1-2.8-4-4.5-5.7c-0.8-1-1.7-2-2.8-2.8c-5.3-4.5-11.6-7.7-18.4-9.3c-3.4-0.8-6.9-1.1-10.4-1.1H66.9c-0.9,0-1,0.4-1,1.2v21.7
		C65.8,81.3,65.8,81.5,67,81.5z"/>
	<path class="st0" d="M100.1,2.4c-54.1,0-97.9,43.9-97.9,97.9c0,54.1,43.8,97.9,97.9,97.9s97.9-43.8,97.9-97.9
		C198,46.3,154.2,2.4,100.1,2.4z M166,111v7.4c0,1-0.3,1.3-1.2,1.3h-11.6c-0.8-0.1-1.6,0.4-1.8,1.2c-2.8,7.2-7.2,13.6-12.9,18.7
		c-2.1,1.9-4.3,3.6-6.5,5.3c-2.5,1.4-4.8,2.9-7.3,4c-4.6,2.1-9.5,3.6-14.4,4.6c-4.7,0.8-9.5,1.2-14.3,1.2H53.5v-0.1l0,0v-0.4V140
		v-4.8v-14.4c0-0.8,0-0.9-1-0.9H39.3c-0.7,0-1,0-1-1v-11.6h14.2c0.8,0,1.1,0,1.1-1V94.7c0-0.7,0-0.9-1-0.9H39.3c-0.7,0-1,0-1-1V82.1
		c0-0.7,0-0.9,1-0.9h13.2c0.9,0,1.2,0,1.2-1.2V47.1c0-1,0-1.2,1.2-1.2h45.9c3.3,0.1,6.6,0.5,9.9,1.1c6.8,1.2,13.2,3.7,19.1,7.1
		c3.9,2.3,7.6,5.1,10.8,8.3c2.4,2.5,4.6,5.2,6.5,8.1c1.9,2.9,3.5,6.1,4.8,9.4c0.1,0.9,1,1.4,1.8,1.3h11c1.4,0,1.4,0,1.5,1.3v10
		c0,1-0.4,1.2-1.3,1.2h-8.4c-0.9,0-1.1,0-1,1.1c0.3,3.7,0.3,7.5,0,11.2c0,1,0,1.2,1.2,1.2h9.7c0.4,0.6,0,1.1,0,1.7
		C166.1,109.6,166.1,110.3,166,111z"/>
	<path class="st0" d="M141,93.8H67c-0.9,0-1.2,0.3-1.2,1.2v10.9c0,1.4,0,1.4,1.5,1.4h36.5h37.2c0.8,0,1.2,0,1.2-1
		c0.3-3.8,0.3-7.6,0-11.4C142.2,94.1,141.8,93.8,141,93.8z"/>
</g>
</svg>
