<?xml version="1.0" encoding="utf-8"?>
<!-- Generator: Adobe Illustrator 25.4.1, SVG Export Plug-In . SVG Version: 6.00 Build 0)  -->
<svg version="1.1" id="Layer_1" xmlns="http://www.w3.org/2000/svg" xmlns:xlink="http://www.w3.org/1999/xlink" x="0px" y="0px"
	 viewBox="0 0 200 200" style="enable-background:new 0 0 200 200;" xml:space="preserve">
<style type="text/css">
	.st0{fill:#404A72;}
	.st1{fill:#556195;}
	.st2{fill:#6ECCE0;}
</style>
<path class="st0" d="M58,127.9c-0.1,1.2-1.2,2.1-2.4,2c-0.6,0-1.2-0.4-1.6-0.9L22.4,99.5c-1.1-0.7-1.4-2.2-0.7-3.3
	c0.3-0.5,0.9-0.9,1.5-1l44.4-17.7c2.1-0.8,3.3,0.3,2.8,2.4L58,127.9z"/>
<path class="st1" d="M31.8,155.9c-1.7,1.4-3.4,0.8-3.8-1.3l-8.6-48c-0.4-2.2,0.6-2.7,2.2-1.2l30.1,28.1c1.5,1.3,1.6,3.6,0.3,5
	c-0.1,0.1-0.3,0.3-0.4,0.4L31.8,155.9z"/>
<path class="st1" d="M68.1,67.9c1.1,1,1.1,2.7,0.1,3.8c-0.3,0.4-0.8,0.6-1.2,0.7L22.9,90.2c-2.1,0.8-3.1-0.2-2.3-2.3l18.1-48.7
	c0.2-1.2,1.3-2,2.5-1.8c0.6,0.1,1.2,0.5,1.5,1.1L68.1,67.9z"/>
<path class="st1" d="M21.9,147.8c0.4,2.2-0.3,2.4-1.4,0.6L3.3,121.9c-1.2-2.1-1.1-4.7,0.2-6.6l7.6-10.2c1.3-1.8,2.8-1.4,3.1,0.7
	L21.9,147.8z"/>
<path class="st1" d="M16.5,84.9c-0.8,2.1-2,2.1-2.7,0L8,67.3c-0.6-2.3,0-4.8,1.7-6.6l20.8-18.9c1.6-1.4,2.4-1,1.6,1.1L16.5,84.9z"/>
<path class="st1" d="M11,91.6c0.7,2.4,0.2,5-1.1,7l-6,8.1c-1.3,1.8-2.2,1.4-2-0.8l2.9-27.8c0.2-2.2,1-2.3,1.7-0.2L11,91.6z"/>
<path class="st1" d="M34.5,28.9c0.7,0.8,0,2.8-1.7,4.3l-9.4,8.5c-1.7,1.4-1.9,1.3-0.6-0.5l7.8-10.6C32.1,28.8,33.8,28.1,34.5,28.9z"
	/>
<path class="st1" d="M93.7,177.1c-0.5,1.2-1.9,1.8-3.1,1.3c-0.5-0.2-1-0.6-1.2-1.1l-24.5-35.7c-0.9-0.9-0.8-2.3,0-3.1
	c0.5-0.4,1.1-0.7,1.7-0.6l49.2-5.1c2.2-0.2,3.1,1.2,2,3.1L93.7,177.1z"/>
<path class="st1" d="M83.4,177.2c1.3,1.8,0.6,2.8-1.5,2l-46.1-15.7c-2.1-0.7-2.4-2.5-0.8-3.9l19.7-17c1.5-1.3,3.7-1.2,5,0.3
	c0.1,0.1,0.2,0.3,0.3,0.4L83.4,177.2z"/>
<path class="st2" d="M116.9,124.5c1.4,1.7,0.8,3.2-1.4,3.5l-50,5.2c-1.4,0.3-2.8-0.6-3.1-2c-0.1-0.5-0.1-1,0.1-1.5L74.9,81
	c0.6-2.1,2.2-2.5,3.6-0.8L116.9,124.5z"/>
<path class="st1" d="M152.8,166.2c0.9,0.8,1.1,2.1,0.4,3.1c-0.4,0.5-1,0.8-1.7,0.8l-50.8,10.7c-2.2,0.5-3-0.7-1.9-2.7l24-41
	c0.6-1.4,2.3-2,3.6-1.3c0.4,0.2,0.8,0.5,1.1,0.9L152.8,166.2z"/>
<path class="st1" d="M71,193.6c-2.2,1-4.7,0.7-6.6-0.8L40.8,172c-1.7-1.4-1.3-2.1,0.8-1.4l40.3,13.7c2.1,0.7,2.2,2.2,0.3,3.2
	L71,193.6z"/>
<path class="st1" d="M125.8,195.5c-2,1.4-4.5,1.7-6.7,0.7l-16.4-8.4c-2-1-1.8-2.2,0.3-2.7l43.8-9.2c2.2-0.5,2.5,0.3,0.8,1.7
	L125.8,195.5z"/>
<path class="st1" d="M79.9,196.6c-2.2-0.1-2.4-1.1-0.5-2.1l8.8-4.8c2.3-1.1,4.9-1.1,7.2-0.1l12.9,6.6c2,1,1.8,1.7-0.4,1.6
	L79.9,196.6z"/>
<path class="st1" d="M161,175.7c0.7,0.8-0.3,2.4-2.2,3.5l-11.6,6.2c-2,1.1-2.2,0.7-0.4-0.7l9.8-8C158.2,175.3,160.2,174.8,161,175.7
	z"/>
<path class="st0" d="M131.6,124c-2.1,0.8-3.3-0.3-2.8-2.4l12.3-47.9c0.1-1.2,1.2-2.1,2.4-2c0.6,0.1,1.2,0.4,1.6,0.9l31.7,29.5
	c1.1,0.7,1.4,2.1,0.8,3.3c-0.3,0.6-0.9,0.9-1.5,1.1L131.6,124z"/>
<path class="st1" d="M179.8,94.9c0.4,2.2-0.6,2.8-2.2,1.2L147.4,68c-1.5-1.3-1.6-3.6-0.3-5c0.1-0.1,0.3-0.3,0.4-0.4l19.8-17
	c1.7-1.4,3.4-0.8,3.8,1.3L179.8,94.9z"/>
<path class="st1" d="M160.5,162.3c-0.2,1.2-1.4,2-2.6,1.8c-0.6-0.1-1.2-0.5-1.5-1L131,133.5c-1.1-1-1.2-2.7-0.2-3.8
	c0.3-0.4,0.8-0.6,1.3-0.8l44.1-17.6c2.1-0.8,3.1,0.2,2.3,2.3L160.5,162.3z"/>
<path class="st1" d="M195.8,79.6c1.2,2.1,1.1,4.6-0.2,6.6L188,96.4c-1.3,1.8-2.7,1.4-3.1-0.7l-7.6-42c-0.4-2.2,0.3-2.4,1.4-0.6
	L195.8,79.6z"/>
<path class="st1" d="M191.2,134.2c0.6,2.3,0,4.8-1.7,6.6l-20.8,18.9c-1.7,1.4-2.4,1-1.6-1.1l15.6-42c0.8-2.1,2-2.1,2.7,0
	L191.2,134.2z"/>
<path class="st1" d="M194.4,123.4c-0.2,2.2-1,2.3-1.7,0.2l-4.6-13.7c-0.7-2.4-0.2-5,1.1-7.1l6-8c1.3-1.8,2.2-1.4,2,0.8L194.4,123.4z
	"/>
<path class="st1" d="M168.4,170.9c-1.3,1.8-3,2.5-3.8,1.7c-0.7-0.9,0-2.8,1.7-4.3l9.4-8.5c1.6-1.4,1.9-1.3,0.6,0.5L168.4,170.9z"/>
<path class="st0" d="M134.3,59.9c0.9,0.9,0.8,2.3,0,3.1c-0.5,0.4-1.1,0.7-1.7,0.6l-49.2,5.1c-2.2,0.2-3.1-1.2-2-3.1l24.1-41.3
	c0.5-1.2,1.9-1.8,3.1-1.3c0.5,0.2,1,0.6,1.2,1.1L134.3,59.9z"/>
<path class="st1" d="M144.5,59c-1.5,1.3-3.7,1.2-5-0.3c-0.1-0.1-0.2-0.3-0.3-0.4l-23.4-33.9c-1.3-1.8-0.6-2.8,1.5-2L163.3,38
	c2.1,0.7,2.4,2.5,0.8,3.9L144.5,59z"/>
<path class="st1" d="M124.2,120.5c-0.5,2.2-2.2,2.5-3.6,0.8L82.3,77c-1.4-1.7-0.8-3.3,1.4-3.5l50-5.2c1.4-0.3,2.8,0.6,3.1,2
	c0.1,0.5,0.1,1-0.1,1.5L124.2,120.5z"/>
<path class="st1" d="M76.5,64.4c-0.6,1.4-2.2,2-3.6,1.3c-0.4-0.2-0.8-0.5-1.1-0.9L46.4,35.3c-0.9-0.8-1.1-2.1-0.4-3.1
	c0.4-0.5,1-0.8,1.7-0.8l50.8-10.7c2.2-0.5,3.1,0.7,1.9,2.7L76.5,64.4z"/>
<path class="st1" d="M117.2,17.2c-2.1-0.7-2.2-2.2-0.3-3.2l11.3-6c2.2-1,4.7-0.7,6.6,0.8l23.6,20.8c1.7,1.4,1.3,2.1-0.8,1.4
	L117.2,17.2z"/>
<path class="st1" d="M52.4,25.5c-2.2,0.5-2.5-0.3-0.8-1.7L73.3,5.9c2-1.4,4.5-1.7,6.7-0.7l16.5,8.4c2,1,1.8,2.2-0.3,2.7L52.4,25.5z"
	/>
<path class="st1" d="M110.9,11.7c-2.3,1.1-4.9,1.1-7.2,0.1l-13-6.6c-1.9-1-1.7-1.7,0.5-1.7l28,1.3c2.2,0.1,2.4,1.1,0.5,2.1
	L110.9,11.7z"/>
<path class="st1" d="M42.7,24.8c-1.7,1.4-3.7,1.9-4.5,1c-0.7-0.8,0.3-2.4,2.2-3.5L52,16.1c2-1.1,2.2-0.7,0.4,0.7L42.7,24.8z"/>
<path class="st1" d="M27.8,165.8c0.8-0.7,2.8,0,4.3,1.6l8.5,9.4c1.4,1.7,1.3,1.9-0.5,0.6l-10.6-7.8
	C27.7,168.2,26.9,166.5,27.8,165.8z"/>
<path class="st1" d="M174.5,39.4c0.9-0.7,2.4,0.3,3.5,2.2l6.2,11.6c1,2,0.7,2.2-0.7,0.4l-8-9.8C174.1,42.1,173.7,40.1,174.5,39.4z"
	/>
<path class="st1" d="M169.7,31.9c1.8,1.3,2.5,3,1.7,3.8c-0.9,0.7-2.8,0-4.3-1.6l-8.5-9.4c-1.4-1.7-1.3-1.9,0.5-0.6L169.7,31.9z"/>
<path class="st1" d="M23.6,157.6c1.4,1.7,1.9,3.7,1,4.5c-0.9,0.7-2.4-0.3-3.5-2.2L15,148.3c-1.1-2-0.7-2.2,0.7-0.4L23.6,157.6z"/>
</svg>
