<?xml version="1.0" encoding="utf-8"?>
<!-- Generator: Adobe Illustrator 25.4.1, SVG Export Plug-In . SVG Version: 6.00 Build 0)  -->
<svg version="1.1" id="Layer_1" xmlns="http://www.w3.org/2000/svg" xmlns:xlink="http://www.w3.org/1999/xlink" x="0px" y="0px"
	 viewBox="0 0 200 200" style="enable-background:new 0 0 200 200;" xml:space="preserve">
<style type="text/css">
	.st0{clip-path:url(#SVGID_00000044895623641264285990000005168808191825562772_);}
	.st1{fill:url(#SVGID_00000105396076809525507520000014961340112796819380_);}
	.st2{fill:url(#SVGID_00000071543426221266550880000012889400544106354329_);}
	.st3{fill:url(#SVGID_00000143597987202690917350000003054170225775297469_);}
	.st4{fill:#0E0F23;}
	.st5{fill-rule:evenodd;clip-rule:evenodd;fill:#FFFFFF;}
	.st6{fill:#FFFFFF;}
</style>
<g>
	<g>
		<defs>
			<rect id="SVGID_1_" y="0.9" width="200" height="200"/>
		</defs>
		<clipPath id="SVGID_00000142160646285007444380000013684995122027214220_">
			<use xlink:href="#SVGID_1_"  style="overflow:visible;"/>
		</clipPath>
		<g style="clip-path:url(#SVGID_00000142160646285007444380000013684995122027214220_);">
			
				<linearGradient id="SVGID_00000006666602109273095480000016747155288743365528_" gradientUnits="userSpaceOnUse" x1="84.0747" y1="-807.039" x2="114.813" y2="-701.4874" gradientTransform="matrix(1 0 0 1 -12 812)">
				<stop  offset="0" style="stop-color:#03B8FF"/>
				<stop  offset="1" style="stop-color:#FA52A0"/>
			</linearGradient>
			<path style="fill:url(#SVGID_00000006666602109273095480000016747155288743365528_);" d="M41.7,20l155,105.8l-38.3,56.7L3.3,75.9
				L41.7,20z"/>
			
				<linearGradient id="SVGID_00000019676128358197817710000000809232788408015526_" gradientUnits="userSpaceOnUse" x1="109.2591" y1="-814.374" x2="139.9983" y2="-708.8218" gradientTransform="matrix(1 0 0 1 -12 812)">
				<stop  offset="0" style="stop-color:#03B8FF"/>
				<stop  offset="1" style="stop-color:#FA52A0"/>
			</linearGradient>
			<path style="fill:url(#SVGID_00000019676128358197817710000000809232788408015526_);" d="M196.7,125.9
				c-13.3,19.2-58.3,11.7-100.8-18.3C52.5,78.4,29.2,39.2,41.7,20C55,0.9,100,8.4,142.5,38.4C185.8,66.7,209.2,106.7,196.7,125.9z"
				/>
			
				<linearGradient id="SVGID_00000148643004926923940720000005561026098096899473_" gradientUnits="userSpaceOnUse" x1="59.1874" y1="-799.7922" x2="89.9266" y2="-694.2395" gradientTransform="matrix(1 0 0 1 -12 812)">
				<stop  offset="0" style="stop-color:#03B8FF"/>
				<stop  offset="1" style="stop-color:#FA52A0"/>
			</linearGradient>
			<path style="fill:url(#SVGID_00000148643004926923940720000005561026098096899473_);" d="M158.3,181.7
				C145,200.9,100,193.4,57.5,163.4S-9.2,95,4.2,75C17.5,55.9,62.5,63.4,105,93.4S170.8,162.5,158.3,181.7z"/>
			<path class="st4" d="M196.7,125.9L196.7,125.9l-38.3,56.7l0,0C145,201.7,100,193.4,57.5,164.2c-8.3-5.8-15.8-11.7-23.3-18.3
				c5.8-0.8,13.3-4.2,20.8-12.5c13.3-14.2,20-17.5,25.8-16.7c5.8,0,12.5,5.8,23.3,20c10.8,14.2,25.8,18.3,35,10.8
				c0.8-0.8,1.7-0.8,2.5-1.7c7.5-5.8,10-8.3,24.2-35c3.3-6.7,15-17.5,30.8-12.5C200.8,109.2,200.8,118.4,196.7,125.9z"/>
			<path class="st5" d="M190.8,122.5c-11.7,16.7-52.5,8.3-91.7-19.2c-40-27.5-63.3-62.5-51.7-79.2s52.5-8.3,91.7,19.2
				S201.7,105.9,190.8,122.5z M154.2,97.5c-5.8,8.3-25.8,4.2-45.8-9.2C89.2,75,77.5,57.5,83.3,49.2c5.8-8.3,25.8-4.2,45.8,9.2
				C148.3,71.7,160,89.2,154.2,97.5z"/>
			<path class="st6" d="M38.3,39.2c0-0.8-0.8-1.7-1.7-0.8S35,39.2,35,40c0.8,2.5,1.7,4.2,1.7,5.8c0,0.8,0.8,1.7,1.7,0.8
				c0.8,0,1.7-0.8,0.8-1.7C39.2,43.4,39.2,41.7,38.3,39.2z"/>
			<path class="st6" d="M42.5,52.5c0-0.8-0.8-1.7-1.7-0.8C40,52.5,40,52.5,40,53.4c9.2,20.8,28.3,43.3,53.3,60c0.8,0.8,1.7,0,2.5,0
				c0.8-0.8,0-1.7,0-2.5C70,94.2,51.7,72.5,42.5,52.5z"/>
			<path class="st6" d="M143.3,134.2c-0.8,0-1.7,0-1.7,0.8c0,0.8,0,1.7,0.8,1.7c2.5,0.8,5.8,1.7,8.3,2.5c0.8,0,1.7,0,1.7-0.8
				c0-0.8,0-1.7-0.8-1.7C149.2,135.9,145.8,135,143.3,134.2z"/>
			<path class="st6" d="M158.3,137.5c-0.8,0-1.7,0.8-1.7,1.7s0.8,1.7,1.7,1.7c6.7,0.8,14.2,1.7,20,0.8c0.8,0,1.7-0.8,1.7-1.7
				c0-0.8-0.8-1.7-1.7-1.7C171.7,139.2,165,138.4,158.3,137.5z"/>
		</g>
	</g>
</g>
</svg>
