<?xml version="1.0" encoding="utf-8"?>
<!-- Generator: Adobe Illustrator 25.4.1, SVG Export Plug-In . SVG Version: 6.00 Build 0)  -->
<svg version="1.1" id="Layer_1" xmlns="http://www.w3.org/2000/svg" xmlns:xlink="http://www.w3.org/1999/xlink" x="0px" y="0px"
	 viewBox="0 0 200 200" style="enable-background:new 0 0 200 200;" xml:space="preserve">
<style type="text/css">
	.st0{fill:#13B5EC;}
</style>
<g>
	<polygon class="st0" points="71,105.7 71,135.8 100.5,153.1 130,135.8 130,105.7 100.5,122.9 	"/>
	<polygon class="st0" points="104.2,112.5 126.3,99.5 104.2,86.6 	"/>
	<polygon class="st0" points="71,67.5 71,93.4 93.1,80.5 	"/>
	<polygon class="st0" points="96.8,86.6 74.7,99.5 96.8,112.5 	"/>
	<path class="st0" d="M100.5,1.1C46.1,1.1,2,45.2,2,99.5S46.1,198,100.5,198s98.5-44.1,98.5-98.5S154.9,1.1,100.5,1.1z M137.4,139.5
		l-36.9,20.9l-36.9-20.9V58.9L100.5,38l36.9,20.9V139.5z"/>
	<polygon class="st0" points="74.7,61.4 100.5,76.2 126.3,61.4 100.5,46 	"/>
	<polygon class="st0" points="130,93.4 130,67.5 107.9,80.5 	"/>
</g>
</svg>
