<?xml version="1.0" encoding="utf-8"?>
<!-- Generator: Adobe Illustrator 25.4.1, SVG Export Plug-In . SVG Version: 6.00 Build 0)  -->
<svg version="1.1" id="Layer_1" xmlns="http://www.w3.org/2000/svg" xmlns:xlink="http://www.w3.org/1999/xlink" x="0px" y="0px"
	 viewBox="0 0 200 200" style="enable-background:new 0 0 200 200;" xml:space="preserve">
<style type="text/css">
	.st0{clip-path:url(#SVGID_00000081625011913639434870000002360117475522306961_);}
	.st1{fill:url(#SVGID_00000181801202739003207540000003951684986757365894_);}
	.st2{fill:#FFFFFF;}
</style>
<g>
	<g>
		<defs>
			<rect id="SVGID_1_" x="0.7" y="0.7" width="198.6" height="198.6"/>
		</defs>
		<clipPath id="SVGID_00000119833287229115888160000001882234331216503436_">
			<use xlink:href="#SVGID_1_"  style="overflow:visible;"/>
		</clipPath>
		<g id="b" style="clip-path:url(#SVGID_00000119833287229115888160000001882234331216503436_);">
			
				<linearGradient id="SVGID_00000169532282339846732500000004615402035267763609_" gradientUnits="userSpaceOnUse" x1="-597.0234" y1="-699.8381" x2="-597.2081" y2="-699.6828" gradientTransform="matrix(776 0 0 776 463462 543114)">
				<stop  offset="0" style="stop-color:#B6509E"/>
				<stop  offset="1" style="stop-color:#2EBAC6"/>
			</linearGradient>
			<circle style="fill:url(#SVGID_00000169532282339846732500000004615402035267763609_);" cx="100" cy="100" r="96.3"/>
			<path class="st2" d="M142.1,138.4l-32.6-78.7c-1.8-4.1-4.6-6.1-8.2-6.1h-2.9c-3.6,0-6.3,2-8.2,6.1L76.2,93.9H65.5
				c-3.2,0-5.8,2.6-5.8,5.8v0.1c0,3.2,2.6,5.8,5.8,5.8h5.8l-13.5,32.7c-0.2,0.7-0.4,1.5-0.4,2.2c0,1.8,0.6,3.3,1.6,4.4
				c1,1.1,2.5,1.7,4.3,1.7c1.2,0,2.4-0.4,3.4-1.1c1-0.7,1.8-1.8,2.3-3l14.9-36.9h10.3c3.2,0,5.8-2.6,5.8-5.8v-0.1
				c0-3.2-2.6-5.8-5.8-5.8h-5.5L100,65.5l31,77c0.6,1.2,1.3,2.2,2.3,3c1,0.7,2.2,1.1,3.4,1.1c1.8,0,3.3-0.5,4.3-1.7
				c1-1.1,1.6-2.6,1.6-4.4C142.6,139.8,142.4,139.1,142.1,138.4z"/>
		</g>
	</g>
</g>
</svg>
