<?xml version="1.0" encoding="utf-8"?>
<!-- Generator: Adobe Illustrator 25.4.1, SVG Export Plug-In . SVG Version: 6.00 Build 0)  -->
<svg version="1.1" id="Layer_1" xmlns="http://www.w3.org/2000/svg" xmlns:xlink="http://www.w3.org/1999/xlink" x="0px" y="0px"
	 viewBox="0 0 1080 1080" style="enable-background:new 0 0 1080 1080;" xml:space="preserve">
<style type="text/css">
	.st0{fill:#AC01FC;}
</style>
<path class="st0" d="M800,600.4c-61.7,0-115.3,35-141.9,86.3c-24,37.6-66,62.6-113.9,62.6c-74.6,0-135.1-60.5-135.1-135.1
	c0-72,56.4-130.9,127.4-134.9c2.3,0.1,4.6,0.2,6.8,0.2c88.3,0,159.8-71.5,159.8-159.8s-71.5-159.8-159.8-159.8
	c-88.3,0-159.8,71.5-159.8,159.8c0,50.9,35.9,91.8,35.9,143.3c0,83-68.4,131.7-144.5,138c-41.2,3.4-80.1,23.1-107.6,53.9
	C77.4,755.7,153.3,920,286.8,920c62.2,0,105.8-39,141.6-85.5c-0.9,2.3-1.8,4.6-2.7,6.9c6.9-17.7,35.6-38.3,51.1-48
	c20.3-12.7,43.5-19.8,67.5-19.8c27.8,0,55.1,8.5,77.9,24.4c30.9,21.4,44.9,58.4,73,82.8C724.1,906,761.7,920,800,920
	c88.3,0,159.8-71.5,159.8-159.8S888.3,600.4,800,600.4z"/>
</svg>
