<?xml version="1.0" encoding="utf-8"?>
<!-- Generator: Adobe Illustrator 25.4.1, SVG Export Plug-In . SVG Version: 6.00 Build 0)  -->
<svg version="1.1" id="Layer_1" xmlns="http://www.w3.org/2000/svg" xmlns:xlink="http://www.w3.org/1999/xlink" x="0px" y="0px"
	 viewBox="0 0 200 200" style="enable-background:new 0 0 200 200;" xml:space="preserve">
<style type="text/css">
	.st0{fill:#070A0E;}
	.st1{fill-rule:evenodd;clip-rule:evenodd;fill:#00D395;}
</style>
<path class="st0" d="M100,198.5c54.4,0,98.5-44.1,98.5-98.5S154.4,1.5,100,1.5S1.5,45.6,1.5,100S45.6,198.5,100,198.5z"/>
<path class="st1" d="M58.4,133c-2.9-1.8-4.7-5-4.7-8.4v-19.2c0-2.3,1.9-4.1,4.1-4.1c0.7,0,1.4,0.2,2.1,0.6l43.4,25.3
	c2.5,1.5,4.1,4.2,4.1,7.1v19.9c0,2.7-2.2,5-4.9,5c-0.9,0-1.8-0.3-2.6-0.7L58.4,133z M123.1,96.5c2.5,1.5,4.1,4.2,4.1,7.1v40.5
	c0,1.2-0.6,2.3-1.7,2.9l-9.5,5.3c-0.1,0.1-0.2,0.1-0.4,0.2V130c0-2.9-1.5-5.6-4-7.1l-38.1-22.8V74.7c0-2.3,1.9-4.1,4.1-4.1
	c0.7,0,1.4,0.2,2.1,0.6L123.1,96.5z M142.1,66.6c2.6,1.5,4.1,4.2,4.1,7.1v59.1c0,1.2-0.7,2.3-1.7,2.9l-9,4.9V99.5
	c0-2.9-1.5-5.6-4-7.1L92.5,69V45c0-0.7,0.2-1.4,0.6-2.1c1.2-2,3.7-2.6,5.7-1.5L142.1,66.6z"/>
</svg>
