<?xml version="1.0" encoding="utf-8"?>
<!-- Generator: Adobe Illustrator 25.4.1, SVG Export Plug-In . SVG Version: 6.00 Build 0)  -->
<svg version="1.1" id="Layer_1" xmlns="http://www.w3.org/2000/svg" xmlns:xlink="http://www.w3.org/1999/xlink" x="0px" y="0px"
	 viewBox="0 0 200 200" style="enable-background:new 0 0 200 200;" xml:space="preserve">
<style type="text/css">
	.st0{fill:#1682FE;}
	.st1{fill:#60D8A4;}
	.st2{fill:#F4BB3B;}
	.st3{fill:#FF5A5A;}
	.st4{fill:#3A3A3A;}
</style>
<rect x="113.8" y="39.4" class="st0" width="13.8" height="20.9"/>
<rect x="74.1" y="0.6" class="st0" width="13.8" height="20.9"/>
<rect x="34.4" y="20.6" class="st1" width="13.8" height="20.9"/>
<rect x="14.5" y="99.9" class="st2" width="14" height="59.6"/>
<rect x="14.5" y="40.3" class="st1" width="14" height="59.6"/>
<rect x="133.6" y="59.3" class="st0" width="13.8" height="20.9"/>
<rect x="133.6" y="119.7" class="st3" width="13.8" height="20.9"/>
<rect x="113.8" y="139.6" class="st3" width="13.8" height="20.9"/>
<rect x="74.1" y="178.3" class="st3" width="13.8" height="20.9"/>
<rect x="34.4" y="158.4" class="st2" width="13.8" height="20.9"/>
<path class="st4" d="M186.2,80V40.3h-19.9V20.6h-39.7V0.6H87v19.9H47.3v19.9H27.4v119.1h19.9v19.9H87v19.9h39.7v-19.9h39.7v-19.9
	h19.9v-39.8h-39.7v19.9h-19.9v19.9H87v-19.9H67.2V60.2h19.9V40.3h39.7v19.9h19.9v19.9h39.5V80z"/>
</svg>
