<?xml version="1.0" encoding="utf-8"?>
<!-- Generator: Adobe Illustrator 25.4.1, SVG Export Plug-In . SVG Version: 6.00 Build 0)  -->
<svg version="1.1" id="Layer_1" xmlns="http://www.w3.org/2000/svg" xmlns:xlink="http://www.w3.org/1999/xlink" x="0px" y="0px"
	 viewBox="0 0 1080 1080" style="enable-background:new 0 0 1080 1080;" xml:space="preserve">
<style type="text/css">
	.st0{fill:#AC01FC;}
</style>
<path class="st0" d="M557.7,130.1v-0.4H113v820.5h444.7c226.5,0,410-183.6,410-410S784.2,130.1,557.7,130.1z M302.1,417.1
	c0.9-0.1,2.4-0.2,4.1-0.2L302.1,417.1z M572.8,809.6c-105.8,0-191.5-85.7-191.5-191.5c0-21,3.4-42,10.2-61.9
	c6.4-18.9,15.8-34.9,15.8-55.5c0-11.6-2.1-23.3-6.9-33.9c-10.9-24.3-34.1-39.8-59.3-46.2c-13.8-3.5-28-2.9-41.6-7
	c-14.6-4.4-29.1-12.3-39.2-23.8c-12.9-14.6-20.1-33.7-20.1-53.2c0-44.5,36.1-80.6,80.6-80.6c24.4,0,47.9,11.3,63.1,30.4
	c16.3,20.5,15.7,41.8,18.2,66.4c4.8,46.5,32.4,87.4,82.9,87.4c29.7,0,58.5-13.6,87.8-13.6c105.8,0,191.5,85.7,191.5,191.5
	S678.6,809.6,572.8,809.6z"/>
</svg>
