<svg width="14" height="19" viewBox="0 0 14 19" fill="none" xmlns="http://www.w3.org/2000/svg">
<path fill-rule="evenodd" clip-rule="evenodd" d="M8.4 6.58794L12.6 4.58291V8.59297L8.4 6.58794ZM12.6 15.1809L7 17.8543L1.4 15.1809V10.5025L7 13.1759L12.6 10.5025V15.1809ZM1.4 4.58291L5.6 6.58794L1.4 8.59297V4.58291ZM7.7 7.54271L11.9 9.54774L7.7 11.5528V7.54271ZM6.3 11.5528L2.1 9.54774L6.3 7.54271V11.5528ZM11.9 3.62814L7 5.9196L2.1 3.62814L7 1.24121L11.9 3.62814ZM0 3.24623V15.7538L7 19L14 15.7538V3.24623L7 0L0 3.24623Z" fill="#ffffff"/>
</svg>
