<?xml version="1.0" encoding="utf-8"?>
<!-- Generator: Adobe Illustrator 25.4.1, SVG Export Plug-In . SVG Version: 6.00 Build 0)  -->
<svg version="1.1" id="Layer_1" xmlns="http://www.w3.org/2000/svg" xmlns:xlink="http://www.w3.org/1999/xlink" x="0px" y="0px"
	 viewBox="0 0 200 200" style="enable-background:new 0 0 200 200;" xml:space="preserve">
<style type="text/css">
	.st0{fill:url(#SVGID_1_);}
	.st1{fill:#818588;}
	.st2{fill:#A7FF58;}
	.st3{fill:#FFFFFF;}
</style>
<g id="Layer_2_00000154384363374525333040000004400155930730261649_">
	<g id="Layer_1-2">
		
			<linearGradient id="SVGID_1_" gradientUnits="userSpaceOnUse" x1="2.9797" y1="-781.9916" x2="197.7236" y2="-781.9916" gradientTransform="matrix(1 0 0 1 0 882)">
			<stop  offset="0" style="stop-color:#344652"/>
			<stop  offset="1" style="stop-color:#333336"/>
		</linearGradient>
		<circle class="st0" cx="100.4" cy="100" r="97.4"/>
		<path class="st1" d="M100.4,6.9c51.4,0,93.1,41.7,93.1,93.1s-41.7,93.1-93.1,93.1S7.3,151.4,7.3,100l0,0C7.3,48.6,49,7,100.4,6.9
			 M100.4,2.6C46.6,2.6,3,46.2,3,100s43.6,97.4,97.4,97.4s97.4-43.6,97.4-97.4S154.1,2.6,100.4,2.6z"/>
		<path class="st2" d="M27.5,112.2l42.4-42.4l0,0c16.7-17,44-17.2,61-0.5c1.9,1.9,3.6,3.9,5.1,6.1c0.1,0.1,0.3,0.2,0.4,0.4
			c5.5,6.6,15.2,7.5,21.8,2c3.5-2.9,5.6-7.3,5.6-11.9c-0.2-3.4-1.4-6.7-3.3-9.5c-24.2-33-70.6-40.2-103.6-16
			c-3.8,2.8-7.3,5.9-10.5,9.3c-14.1,15-21.3,35.3-19.8,55.9C26.8,107.6,27.1,109.9,27.5,112.2z"/>
		<path class="st2" d="M170.3,108.5c-2.2-2.8-5.6-4.5-9.1-4.5h-44.8h-0.3c-6.4,0-11.6,5.2-11.6,11.6c0,0.1,0,0.2,0,0.4
			c0.2,6,5.9,11.2,12.2,11.2h3c3.4,0.1,6,2.9,5.9,6.2c0,1.5-0.6,3-1.7,4.1l-35.5,35.7c2.3,0.4,4.6,0.6,6.8,0.8
			c35.6,2.5,68-20.7,77-55.2C173.3,115.2,172.6,111.4,170.3,108.5z"/>
		<path class="st3" d="M100.2,65c-6.2,0.2-12.3,2.2-17.4,5.7L82.4,71c-4.5,3-8.6,6.4-12.4,10.1l-47.1,47c-2.1,2.1-0.8,7.8,5.8,5.1
			l6.3-2.4c6.6-1.8,11.5-1.3,15.1,3.4c3,4.1,1.1,10.7,1.1,10.7c-1.4,4.7,2.2,7.9,6.1,6.3l2.5-0.9c5.9-2.1,12.5,0.6,15.2,6.3
			c1.2,2.4,1.5,5.3,0.8,7.9l0,0c-0.7,1.9,0.3,4.1,2.3,4.8c1.5,0.5,3.1,0.1,4.1-1.2l32.8-32.9c-10-0.9-18.2-9.3-18.5-19
			c-0.4-10.8,8.2-19.9,19-20.3c0,0,0.1,0,0.1,0c0.2,0,0.4,0,0.6,0h19.3C133.3,78.2,118.1,64.8,100.2,65z M81.4,94.1
			c-1.8,4.9-5.4,8-8.1,7c-2.7-1-3.5-5.7-1.7-10.6c1.8-4.9,5.4-8,8.1-7C82.3,84.4,83.1,89.2,81.4,94.1z M99.8,94.1
			c-1.8,4.9-5.4,8-8.1,7c-2.7-1-3.5-5.7-1.7-10.6c1.8-4.9,5.4-8,8.1-7C100.7,84.4,101.5,89.2,99.8,94.1z"/>
	</g>
</g>
</svg>
