<?xml version="1.0" encoding="utf-8"?>
<!-- Generator: Adobe Illustrator 25.4.1, SVG Export Plug-In . SVG Version: 6.00 Build 0)  -->
<svg version="1.1" id="Layer_1" xmlns="http://www.w3.org/2000/svg" xmlns:xlink="http://www.w3.org/1999/xlink" x="0px" y="0px"
	 viewBox="0 0 450 110" style="enable-background:new 0 0 450 110;" xml:space="preserve">
<style type="text/css">
	.st0{fill:#AC01FC;}
	.st1{fill-rule:evenodd;clip-rule:evenodd;fill:#AC01FC;}
</style>
<path class="st0" d="M143.2,17.5v9.6h-5.9v-9.5L124,0.5h7.2l9,11.9l9.2-11.9h7L143.2,17.5z"/>
<path class="st0" d="M159.3,7h5.8v20h-5.8V7z M159.2,0h5.9v4h-5.9V0z"/>
<path class="st0" d="M195.4,17.1c0,0.4,0,0.9-0.1,1.4h-20.1c0.2,1.8,0.9,3.1,2,4c1.2,0.9,3,1.3,5.2,1.3c2,0,3.5-0.3,4.5-0.9
	c1-0.6,1.5-1.3,1.7-2h6.5c-0.2,2.1-1.4,3.7-3.3,5.1c-1.9,1.3-5.1,1.9-9.4,1.9c-4.4,0-7.7-0.9-10-2.8c-2.2-1.9-3.3-4.5-3.3-7.9
	s1.1-6.1,3.3-7.9c2.2-1.9,5.5-2.8,9.8-2.8c4.3,0,7.6,0.9,9.8,2.8S195.4,13.6,195.4,17.1z M182.3,10.4c-3.9,0-6.2,1.4-6.9,4.2h13.8
	c-0.3-1.4-1.1-2.5-2.3-3.2C185.8,10.8,184.2,10.4,182.3,10.4z"/>
<path class="st0" d="M199.6,0.1h5.8v26.9h-5.8V0.1z"/>
<path class="st0" d="M229.8,9.7V0.1h5.8v26.9h-5.7v-2.6h-0.2c-1.9,2.2-4.7,3.3-8.4,3.3c-3.7,0-6.6-0.9-8.7-2.8
	c-2.1-1.9-3.1-4.5-3.1-7.8s1-6,3.1-7.8c2.1-1.9,5-2.8,8.7-2.8c3.6,0,6.3,1,8.3,3.1H229.8z M222.6,23.4c2.3,0,4.1-0.6,5.4-1.7
	c1.3-1.1,1.9-2.6,1.9-4.5c0-1.9-0.6-3.4-1.9-4.5s-3.1-1.7-5.4-1.7c-4.8,0-7.1,2.1-7.1,6.2C215.5,21.3,217.9,23.4,222.6,23.4z"/>
<path class="st0" d="M132.5,52.2h19.5v4.5h-19.5v6.8h20.6v4.7h-26.5V41.6h26v4.7h-20.1V52.2z"/>
<path class="st0" d="M163.4,50.7h0.2c2.1-2,5.1-3,8.9-3c2.9,0,5.2,0.6,7,1.8c1.8,1.2,2.6,3,2.6,5.5v13.2h-5.8V56.9
	c0-1.6-0.5-2.8-1.5-3.5c-1-0.7-2.5-1.1-4.4-1.1c-1.9,0-3.5,0.5-4.9,1.4c-1.3,0.9-2,2.4-2,4.4v10.2h-5.8v-20h5.7V50.7z"/>
<path class="st0" d="M201.8,47.7c2.9,0,5.2,0.6,7,1.8c1.8,1.2,2.6,3,2.6,5.5v13.2h-5.8V56.9c0-1.6-0.5-2.8-1.5-3.5
	c-1-0.7-2.5-1.1-4.4-1.1c-1.9,0-3.5,0.5-4.9,1.4c-1.3,0.9-2,2.4-2,4.4v10.2h-5.8V41.3h5.8v9.4h0.2C195,48.7,198,47.7,201.8,47.7z"/>
<path class="st0" d="M239.7,64.9c0,0.7,0,1.4,0.1,1.9c0.1,0.5,0.2,0.9,0.4,1.2v0.2h-5.7c-0.4-0.4-0.6-1.1-0.6-2.3v-0.6
	c-1,1.2-2.3,2.1-3.9,2.7s-3.6,0.9-6,0.9c-2.7,0-4.8-0.5-6.4-1.6c-1.6-1.1-2.5-2.7-2.5-4.8c0-2,0.6-3.5,1.7-4.5
	c1.1-1,2.7-1.6,4.5-1.7l9.7-0.9c0.8,0,1.5-0.2,1.8-0.5c0.4-0.3,0.6-0.7,0.6-1.3c0-0.7-0.4-1.2-1.2-1.5c-0.8-0.3-2.1-0.5-3.9-0.5
	c-1.8,0-3.2,0.2-4.2,0.6c-1,0.4-1.5,1.1-1.6,2h-6.2c0.1-2.5,1.1-4.2,3.2-5.2c2.1-1,5-1.5,8.7-1.5c3.8,0,6.6,0.4,8.5,1.3
	c1.9,0.8,2.8,2.4,2.8,4.7V64.9z M233.9,58.3c-0.3,0.2-0.9,0.4-1.7,0.5l-7.8,0.9c-1,0.1-1.8,0.4-2.3,0.8c-0.5,0.4-0.8,1-0.8,1.9
	c0,0.9,0.4,1.6,1.1,2c0.7,0.4,1.8,0.6,3.2,0.6c2.3,0,4.2-0.4,5.8-1.3c1.6-0.9,2.5-2.3,2.5-4.3V58.3z"/>
<path class="st0" d="M250.3,50.7h0.2c2.1-2,5.1-3,8.9-3c2.9,0,5.2,0.6,7,1.8c1.8,1.2,2.6,3,2.6,5.5v13.2h-5.8V56.9
	c0-1.6-0.5-2.8-1.5-3.5c-1-0.7-2.5-1.1-4.4-1.1c-1.9,0-3.5,0.5-4.9,1.4c-1.3,0.9-2,2.4-2,4.4v10.2h-5.8v-20h5.7V50.7z"/>
<path class="st0" d="M286.3,64.5c2.2,0,3.8-0.3,4.8-1c1-0.7,1.6-1.7,1.8-2.9h6.5c-0.7,5.6-5.1,8.3-13.1,8.3c-4.3,0-7.6-0.9-9.8-2.8
	c-2.2-1.9-3.3-4.5-3.3-7.9s1.1-6.1,3.3-7.9c2.2-1.9,5.5-2.8,9.8-2.8c8,0,12.3,2.7,13.1,8.2h-6.4c-0.3-1.2-0.9-2.1-1.9-2.8
	c-1-0.7-2.6-1-4.8-1c-2.4,0-4.1,0.5-5.3,1.6c-1.2,1.1-1.8,2.6-1.8,4.7c0,2.1,0.6,3.6,1.8,4.7C282.1,63.9,283.9,64.5,286.3,64.5z"/>
<path class="st0" d="M328.9,58.2c0,0.4,0,0.9-0.1,1.4h-20.1c0.2,1.8,0.9,3.1,2,4c1.2,0.9,3,1.3,5.2,1.3c2,0,3.5-0.3,4.5-0.9
	c1-0.6,1.5-1.3,1.7-2h6.5c-0.2,2.1-1.4,3.7-3.3,5.1c-1.9,1.3-5.1,1.9-9.4,1.9c-4.4,0-7.7-0.9-10-2.8c-2.2-1.9-3.3-4.5-3.3-7.9
	s1.1-6.1,3.3-7.9c2.2-1.9,5.5-2.8,9.8-2.8c4.3,0,7.6,0.9,9.8,2.8C327.8,52.1,328.9,54.8,328.9,58.2z M315.7,51.5
	c-3.9,0-6.2,1.4-6.9,4.2h13.8c-0.3-1.4-1.1-2.5-2.3-3.2C319.2,51.9,317.7,51.5,315.7,51.5z"/>
<path class="st0" d="M338.7,50.8h0.2c0.9-1.1,2-1.8,3.4-2.3c1.4-0.5,3-0.8,4.7-0.8c3.8,0,6.4,1.1,7.7,3.2c1-1.1,2.2-1.9,3.8-2.4
	c1.5-0.5,3.2-0.8,5.1-0.8c2.6,0,4.7,0.6,6.3,1.8c1.6,1.2,2.4,3,2.4,5.4v13.3h-5.8V56.4c0-1.4-0.4-2.5-1.3-3.2c-0.9-0.7-2.1-1-3.7-1
	c-1.6,0-2.9,0.4-4.1,1.3c-1.2,0.8-1.7,2.1-1.7,3.9v10.7h-5.8V56.4c0-1.4-0.4-2.5-1.3-3.2c-0.9-0.7-2.1-1-3.7-1
	c-1.6,0-2.9,0.4-4.1,1.3c-1.2,0.8-1.7,2.1-1.7,3.9v10.7H333v-20h5.7V50.8z"/>
<path class="st0" d="M402.5,58.2c0,0.4,0,0.9-0.1,1.4h-20.1c0.2,1.8,0.9,3.1,2,4c1.2,0.9,3,1.3,5.2,1.3c2,0,3.5-0.3,4.5-0.9
	c1-0.6,1.5-1.3,1.7-2h6.5c-0.2,2.1-1.4,3.7-3.3,5.1c-1.9,1.3-5.1,1.9-9.4,1.9c-4.4,0-7.7-0.9-10-2.8c-2.2-1.9-3.3-4.5-3.3-7.9
	s1.1-6.1,3.3-7.9c2.2-1.9,5.5-2.8,9.8-2.8c4.3,0,7.6,0.9,9.8,2.8C401.4,52.1,402.5,54.8,402.5,58.2z M389.4,51.5
	c-3.9,0-6.2,1.4-6.9,4.2h13.8c-0.3-1.4-1.1-2.5-2.3-3.2C392.9,51.9,391.3,51.5,389.4,51.5z"/>
<path class="st0" d="M412.3,50.7h0.2c2.1-2,5.1-3,8.9-3c2.9,0,5.2,0.6,7,1.8c1.8,1.2,2.6,3,2.6,5.5v13.2h-5.8V56.9
	c0-1.6-0.5-2.8-1.5-3.5c-1-0.7-2.5-1.1-4.4-1.1c-1.9,0-3.5,0.5-4.9,1.4c-1.3,0.9-2,2.4-2,4.4v10.2h-5.8v-20h5.7V50.7z"/>
<path class="st0" d="M446.3,63.8c1.5,0,2.7-0.1,3.6-0.3v4.6c-0.5,0.1-1.2,0.2-2,0.2c-0.8,0.1-1.6,0.1-2.3,0.1c-2,0-3.6-0.2-4.8-0.6
	c-1.1-0.4-1.9-1-2.4-1.8c-0.5-0.8-0.7-2-0.7-3.5V51.9h-4.1v-3.8h4.1v-5.5h5.8v5.5h6.5v3.8h-6.5v9.8c0,0.8,0.2,1.3,0.7,1.6
	C444.6,63.6,445.3,63.8,446.3,63.8z"/>
<path class="st0" d="M126.6,109.3V82.7h5.9v21.6H153v4.9H126.6z"/>
<path class="st0" d="M180.7,106.1c0,0.7,0,1.4,0.1,1.9c0.1,0.5,0.2,0.9,0.4,1.2v0.2h-5.7c-0.4-0.4-0.6-1.1-0.6-2.3v-0.6
	c-1,1.2-2.3,2.1-3.9,2.7c-1.6,0.6-3.6,0.9-6,0.9c-2.7,0-4.8-0.5-6.4-1.6c-1.6-1.1-2.5-2.7-2.5-4.8c0-2,0.6-3.5,1.7-4.5
	c1.1-1,2.7-1.6,4.5-1.7l9.7-0.9c0.8,0,1.5-0.2,1.8-0.5c0.4-0.3,0.6-0.7,0.6-1.3c0-0.7-0.4-1.2-1.2-1.5c-0.8-0.3-2.1-0.5-3.9-0.5
	c-1.8,0-3.2,0.2-4.2,0.6c-1,0.4-1.5,1.1-1.6,2h-6.2c0.1-2.5,1.1-4.2,3.2-5.2c2.1-1,5-1.5,8.7-1.5c3.8,0,6.6,0.4,8.5,1.3
	c1.9,0.8,2.8,2.4,2.8,4.7V106.1z M175,99.4c-0.3,0.2-0.9,0.4-1.7,0.5l-7.8,0.9c-1,0.1-1.8,0.4-2.3,0.8c-0.5,0.4-0.8,1-0.8,1.9
	c0,0.9,0.4,1.6,1.1,2c0.7,0.4,1.8,0.6,3.2,0.6c2.3,0,4.2-0.4,5.8-1.3c1.6-0.9,2.5-2.3,2.5-4.3V99.4z"/>
<path class="st0" d="M191.7,91.9c2-2.1,4.7-3.1,8.3-3.1c3.7,0,6.6,0.9,8.7,2.8c2.1,1.8,3.1,4.4,3.1,7.8c0,3.4-1,6-3.1,7.8
	c-2.1,1.9-5,2.8-8.7,2.8c-3.7,0-6.5-1.1-8.4-3.3h-0.2v2.6h-5.7V82.4h5.8v9.5H191.7z M198.6,105.6c4.8,0,7.1-2.1,7.1-6.2
	c0-4.1-2.4-6.2-7.1-6.2c-2.3,0-4.1,0.6-5.4,1.7c-1.3,1.1-1.9,2.6-1.9,4.5c0,1.9,0.6,3.4,1.9,4.5C194.5,105,196.3,105.6,198.6,105.6z
	"/>
<path class="st0" d="M232.7,95.3c-0.1-1-0.7-1.8-1.7-2.2c-1-0.4-2.5-0.6-4.5-0.6c-1.9,0-3.2,0.2-4,0.6c-0.8,0.3-1.2,0.9-1.2,1.6
	c0,0.6,0.2,1,0.6,1.3c0.4,0.2,1.2,0.4,2.2,0.5l8.8,0.8c2.2,0.2,3.9,0.8,5.1,1.7c1.2,0.9,1.7,2.4,1.7,4.5c0,1.8-0.5,3.1-1.5,4.1
	c-0.9,1-2.3,1.7-4.1,2c-1.8,0.4-4.1,0.6-6.9,0.6c-2.7,0-5-0.2-6.8-0.6c-1.8-0.4-3.2-1.1-4.3-2.2c-1-1.1-1.6-2.6-1.6-4.6h6.3
	c0.1,1.3,0.8,2.2,1.9,2.7c1.1,0.5,2.7,0.7,4.9,0.7c2.1,0,3.6-0.2,4.5-0.6c0.9-0.4,1.4-1.1,1.4-1.9c0-0.7-0.2-1.1-0.7-1.4
	c-0.4-0.3-1.1-0.5-2.2-0.6l-8.4-0.9c-2.3-0.2-4-0.8-5.2-1.6c-1.2-0.9-1.8-2.3-1.8-4.2c0-2.3,1-4,2.9-4.9c1.9-0.9,4.8-1.4,8.6-1.4
	c3.8,0,6.8,0.5,8.9,1.5c2.1,1,3.2,2.7,3.3,5.2H232.7z"/>
<path class="st0" d="M17,102h76v8H17V102z"/>
<path class="st1" d="M55,65c8.8,0,16-7.2,16-16s-7.2-16-16-16s-16,7.2-16,16S46.2,65,55,65z"/>
<path class="st0" d="M62,97.5c23.7-3.4,42-23.8,42-48.5c0-27.1-21.9-49-49-49S6,21.9,6,49c0,24.7,18.3,45.1,42,48.5V67.7
	c-2.5-0.9-4.8-2.4-6.7-4.2L38,66.8V83l-7.9,0l0-4H34v-8.4l-9.9,9.2V68.3H19v-4h9.1v6.2l6.5-6l4-4C36.4,57.3,35,53.3,35,49
	s1.4-8.3,3.6-11.5l-4-4l-6.5-6v6.2H19v-4h5.1V18.2l9.9,9.2V19h-3.9l0-4l7.9,0v16.2l3.3,3.3C44.9,31.1,49.7,29,55,29
	s10.1,2.1,13.7,5.5l3.3-3.3V15l7.9,0l0,4H76v8.4l9.9-9.2v11.4H91v4h-9.1v-6.2l-6.5,6l-4,4C73.6,40.7,75,44.7,75,49
	s-1.4,8.3-3.7,11.5l4,4l6.5,6v-6.2H91v4h-5.1v11.4L76,70.6V79h3.9l0,4L72,83V66.8l-3.3-3.3c-1.9,1.8-4.2,3.2-6.7,4.2V97.5z"/>
<path class="st0" d="M52,68h6v30h-6V68z"/>
</svg>
