<?xml version="1.0" encoding="utf-8"?>
<!-- Generator: Adobe Illustrator 25.4.1, SVG Export Plug-In . SVG Version: 6.00 Build 0)  -->
<svg version="1.1" id="Layer_1" xmlns="http://www.w3.org/2000/svg" xmlns:xlink="http://www.w3.org/1999/xlink" x="0px" y="0px"
	 viewBox="0 0 200 200" style="enable-background:new 0 0 200 200;" xml:space="preserve">
<style type="text/css">
	.st0{fill:#6CE1DB;}
	.st1{fill:#FCB8D1;}
	.st2{fill:#E6E5E6;}
</style>
<g>
	<circle class="st0" cx="100" cy="100.5" r="96.8"/>
	<path class="st0" d="M109,105c1-0.8,1.3-2,1.2-3.3c0-1.5-0.6-2.8-1.6-4c0.9,1.2,1.5,2.4,1.6,4C110.2,103,110,104.2,109,105z"/>
	<path class="st0" d="M133.2,95c-6.1,0.3-10.2-3.1-13.9-6.9C123,91.9,127.1,95.3,133.2,95c3.7,0,5.9-0.8,7.1-2.6
		C139.1,94.2,136.8,95,133.2,95z"/>
	<path class="st1" d="M100.2,197.2c28.1,0,53.5-12,71.1-31.2c-7.5-3.4-15.3-5.8-23-8.4c-3.1-1-3.1-2.3-2.1-4.7
		c3.7-8.9,7.5-17.8,11-26.9c4.6-11.9,7.5-24.3,6-37.3c-1.5-12.9-5.4-25.4-12.2-36.4c-6.9-11.2-15.8-20.3-27.1-27
		c-8.8-5.2-18.4-6.1-28.4-6c-25,0.4-44.6,24.7-52.9,46.1c-2.2,5.7-3.9,11.6-4.9,17.7c-2.4,13.8-0.8,27.9,4,41
		c3.4,9.3,7.1,18.5,10.9,27.7c1.3,3.1,1.3,4.7-2.5,5.9c-7.2,2.3-14.3,5.1-21.4,7.8C46.3,185,71.8,197.2,100.2,197.2z M51.8,103
		c-2.4-1.1-4.8-2.2-6.5-4.7c-3.7-5.6-0.7-10.2,1.6-14.9c2.5-4.9,7-7.4,12.3-8.6c5-1.1,5.6-2,5.9-7c0.7-14.8,6.4-27.2,18.1-36.6
		c3.7-3,8.2-4.4,12.5-6c1.6-0.6,3.7-0.6,5.4-0.1c8.6,2.5,16.7,5.8,23.4,12.2c9.1,8.7,13.3,19.5,14.2,31.7c0.2,3.3,1.6,4.9,4.6,5.7
		c9.2,2.5,14.2,10,13.1,19.3c-0.5,4.1-2.7,7.6-6.5,9.1c-12.4,4.6-15.7,15.3-19.1,26.4c-5.4,18-12.2,35.5-23.2,50.9
		c-1.9,2.6-3.8,5.7-8.1,5.4c-3.1,0.2-4.7-2.2-6.3-4.3c-5.6-7.5-9.7-15.8-13.6-24.3c-5.8-12.2-9.3-25.2-13.6-37.9
		C63.7,111.8,59,106.4,51.8,103z"/>
	<path class="st2" d="M66.3,119.3c4.3,12.7,7.8,25.7,13.6,37.9c4,8.4,8.1,16.8,13.6,24.3c1.6,2.1,3.2,4.5,6.3,4.3
		c4.2,0.3,6.2-2.8,8.1-5.4c11.1-15.4,17.8-32.9,23.2-50.9c3.3-11.1,6.7-21.8,19.1-26.4c3.8-1.4,6-4.9,6.5-9.1
		c1.1-9.3-4-16.8-13.1-19.3c-3-0.8-4.4-2.4-4.6-5.7c-0.8-12.2-5-23-14.2-31.7c-6.7-6.4-14.9-9.6-23.4-12.2c-1.7-0.5-3.8-0.5-5.4,0.1
		c-4.3,1.6-8.8,3-12.5,6c-11.8,9.4-17.4,21.8-18.1,36.6c-0.3,5-0.9,5.9-5.9,7c-5.3,1.2-9.8,3.7-12.3,8.6c-2.3,4.6-5.4,9.3-1.6,14.9
		c1.7,2.5,4,3.6,6.5,4.7C59,106.4,63.7,111.8,66.3,119.3z M109.1,141.4c-1.1,6.4-0.9,13.1-1.2,19.6c-0.1,2.9-0.6,5.7-2.4,8
		c-1.3,1.7-3,3.8-5.3,3.2s-4.3-2.6-4.7-5.2c-0.9-5.1-1.7-10.2-2.2-15.3c-0.8-9-1.2-18-1.8-26.9c0,0,0.1,0,0.1,0c0-0.9,0-1.8,0-2.7
		c0-6.4,2.5-9.2,8.2-9.3c6.9-0.1,11.1,3.4,11.3,9.4C111.1,128.7,110.2,135,109.1,141.4z M108.6,60.3c3.1-0.9,4.5,1.6,5.2,4
		c3.1,10.7,11.2,15.5,21.2,18.2c5.3,1.4,6.8,3.1,6.2,7.1c-0.1,0.5-0.2,0.9-0.3,1.3c0,0.1-0.1,0.3-0.1,0.4c0,0.1-0.1,0.2-0.1,0.3
		c0,0.1-0.1,0.2-0.1,0.3c-0.1,0.1-0.1,0.2-0.2,0.3c-1.2,1.9-3.4,2.7-7.1,2.6c-6.1,0.3-10.2-3.1-13.9-6.9c-0.1-0.1-0.2-0.3-0.4-0.4
		c-0.6-0.6-1.1-1.2-1.6-1.7c-4.8-5.1-8.8-10.8-10.4-17.8c-0.1-0.6-0.4-1.3-0.4-1.9C106.3,64,105.6,61.2,108.6,60.3z M98.1,90.4
		c1.7-1.9,3-2,4.6,0.2c1.7,2.4,3.8,4.6,5.7,6.8c0.1,0.1,0.1,0.1,0.2,0.2c0.9,1.2,1.5,2.4,1.6,4c0,1.3-0.2,2.5-1.2,3.3
		c-0.1,0.1-0.3,0.2-0.5,0.3c-1.4,0.7-2.5-0.1-3.6-0.8c-0.3-0.2-0.7-0.4-0.9-0.7c-2.4-3.2-4.7-4-7.5-0.4c-1.2,1.5-3.3,2.4-5.2,0.8
		c-1.9-1.6-0.7-3.3,0.1-4.9C93,95.9,95.6,93.2,98.1,90.4z M58.7,92.5c-2.1-3.1-1.4-6.5,2.1-8.1c2.4-1.1,5.2-1.6,7.7-2.6
		c8.1-3.2,14.7-8,17-17.1c0.6-2.6,2.2-4.3,5-3.8c3.1,0.6,3.1,3.2,2.6,5.6c-1.3,6.9-4.7,12.8-9.3,18c-3.5,4-7,8.3-12.4,10.2
		c-1.9,0.6-3.7,1.1-5.9,1C62.6,96.2,60.3,95,58.7,92.5z"/>
	<path class="st1" d="M99.7,112.8c-5.7,0.1-8.1,2.9-8.2,9.3c0,0.9,0,1.8,0,2.7c0,0-0.1,0-0.1,0c0.6,9,1.1,18,1.8,26.9
		c0.4,5.1,1.3,10.2,2.2,15.3c0.5,2.6,2.4,4.5,4.7,5.2c2.4,0.6,4-1.5,5.3-3.2c1.8-2.3,2.3-5.1,2.4-8c0.3-6.5,0.1-13.2,1.2-19.6
		c1.1-6.4,2-12.7,1.9-19.2C110.9,116.2,106.6,112.7,99.7,112.8z"/>
	<path class="st1" d="M65.4,95.7c2.2,0.1,4-0.3,5.9-1c5.4-1.9,8.8-6.2,12.4-10.2c4.6-5.2,8.1-11.1,9.3-18c0.4-2.3,0.5-5-2.6-5.6
		c-2.8-0.5-4.3,1.2-5,3.8c-2.3,9.1-8.9,13.9-17,17.1c-2.5,1-5.2,1.5-7.7,2.6c-3.4,1.6-4.2,4.9-2.1,8.1C60.3,95,62.6,96.2,65.4,95.7z
		"/>
	<path class="st1" d="M106.8,68.1c1.7,7,5.6,12.7,10.4,17.8c0.5,0.6,1.1,1.2,1.6,1.7c0.1,0.1,0.2,0.3,0.4,0.4
		c3.7,3.8,7.8,7.2,13.9,6.9c3.7,0,5.9-0.8,7.1-2.6c0.1-0.1,0.1-0.2,0.2-0.3c0.1-0.1,0.1-0.2,0.1-0.3c0.1-0.1,0.1-0.2,0.1-0.3
		c0.1-0.1,0.1-0.3,0.1-0.4c0.1-0.4,0.2-0.8,0.3-1.3c0.6-4-1-5.7-6.2-7.1c-10-2.6-18.1-7.5-21.2-18.2c-0.7-2.4-2.1-4.9-5.2-4
		c-2.9,0.8-2.3,3.6-2.2,5.9C106.4,66.9,106.7,67.5,106.8,68.1z"/>
	<path class="st1" d="M91.2,104.2c1.9,1.6,4,0.7,5.2-0.8c2.9-3.6,5.2-2.8,7.5,0.4c0.2,0.3,0.6,0.6,0.9,0.7c1.1,0.7,2.2,1.5,3.6,0.8
		c0.2-0.1,0.3-0.2,0.5-0.3c1-0.8,1.3-2,1.2-3.3c0-1.5-0.6-2.8-1.6-4c-0.1-0.1-0.1-0.1-0.2-0.2c-1.9-2.3-4-4.4-5.7-6.8
		c-1.6-2.2-3-2.1-4.6-0.2c-2.5,2.8-5.1,5.5-6.7,8.9C90.6,100.9,89.4,102.6,91.2,104.2z"/>
</g>
</svg>
