<svg width="17" height="15" viewBox="0 0 17 15" fill="none" xmlns="http://www.w3.org/2000/svg">
<path d="M16.679 0.206206C16.389 -0.0322946 15.9335 -0.0664196 15.4626 0.116956H15.4618C14.9665 0.309706 1.44172 5.93622 0.891141 6.1661C0.791 6.19985 -0.083589 6.51635 0.00649905 7.22135C0.086921 7.85698 0.78984 8.12023 0.875675 8.1506L4.3141 9.29248C4.54222 10.029 5.38317 12.7462 5.56915 13.3267C5.68514 13.6886 5.87421 14.1641 6.20556 14.262C6.49632 14.3707 6.78553 14.2714 6.97267 14.1289L9.07485 12.2377L12.4684 14.8046L12.5492 14.8515C12.7797 14.9505 13.0004 15 13.2112 15C13.3739 15 13.5301 14.9704 13.6794 14.9111C14.1878 14.7086 14.3912 14.2387 14.4125 14.1855L16.9473 1.40658C17.102 0.724083 16.887 0.376832 16.679 0.206206ZM7.34655 9.74923L6.18662 12.7492L5.02669 8.99923L13.9195 2.62421L7.34655 9.74923Z" fill="#5A5A5C"/>
</svg>
