<?xml version="1.0" encoding="utf-8"?>
<!-- Generator: Adobe Illustrator 25.4.1, SVG Export Plug-In . SVG Version: 6.00 Build 0)  -->
<svg version="1.1" id="Layer_1" xmlns="http://www.w3.org/2000/svg" xmlns:xlink="http://www.w3.org/1999/xlink" x="0px" y="0px"
	 viewBox="0 0 200 200" style="enable-background:new 0 0 200 200;" xml:space="preserve">
<style type="text/css">
	.st0{fill:#2775CA;}
</style>
<path class="st0" d="M100.1,1C45.2,1,1,45.2,1,100.1s44.2,99.1,99.1,99.1s99.1-44.2,99.1-99.1S155,1,100.1,1z M81.5,168.6
	c0,0.8,0,1.2-0.4,1.6c-0.4,1.6-2.1,2.5-3.7,1.6c-23.1-7.4-40.9-25.2-48.3-48.3c-12.4-39.2,9.1-80.9,48.3-93.3
	c0.4-0.4,1.2-0.4,1.6-0.4c1.6,0.4,2.5,1.6,2.5,3.3V39c0,2.1-0.8,3.3-2.5,4.1c-16.9,6.2-30.5,19.4-36.7,36.7
	c-12,31.8,4.5,67.7,36.7,79.3c1.2,0.8,2.5,2.5,2.5,3.7L81.5,168.6L81.5,168.6z M106.7,147.6c-0.4,2.1-1.6,3.3-3.3,3.3h-6.2
	c-2.1-0.4-3.3-1.6-3.3-3.3v-9.9c-13.6-2.1-20.2-9.5-21.9-19.8v-0.4c0-1.6,1.2-2.9,2.9-2.9h7c1.2,0,2.5,0.8,2.9,2.5
	c1.2,6.2,4.9,10.7,15.7,10.7c7.8,0,13.6-4.5,13.6-11.1s-3.7-9.1-15.3-11.1c-17.3-2.1-25.6-7.4-25.6-21.1c0-10.3,7.8-18.6,20.2-20.2
	v-9.5c0.4-2.1,1.6-3.3,3.3-3.3h6.2c2.1,0.4,3.3,1.6,3.3,3.3v9.9c9.5,0.8,16.9,7.8,18.6,16.9v0.4c0,1.6-1.2,2.9-2.9,2.9h-6.6
	c-1.2,0-2.5-0.8-2.9-2.1c-2.1-6.2-6.2-8.7-13.6-8.7c-8.3,0-12.4,3.7-12.4,9.5s2.5,9.1,14.9,10.7c17.3,2.1,26,7,26,21.5l0,0
	c0,11.1-8.3,19.8-20.7,21.9L106.7,147.6L106.7,147.6z M122.8,172.3c-0.4,0.4-1.2,0.4-1.6,0.4c-1.6-0.4-2.5-1.6-2.5-3.3v-5.8
	c0-2.1,0.8-3.3,2.5-4.1c16.9-6.2,30.5-19.4,36.7-36.7c12-31.8-4.5-67.7-36.7-79.3c-1.2-0.8-2.5-2.5-2.5-4.1v-5.8
	c0-0.8,0-1.2,0.4-1.6c0.4-1.6,2.1-2.5,3.7-1.6l0,0c22.7,7.4,40.9,25.2,48.3,48.7C183.5,118.2,162,160,122.8,172.3z"/>
</svg>
