<?xml version="1.0" encoding="utf-8"?>
<!-- Generator: Adobe Illustrator 25.4.1, SVG Export Plug-In . SVG Version: 6.00 Build 0)  -->
<svg version="1.1" id="Layer_1" xmlns="http://www.w3.org/2000/svg" xmlns:xlink="http://www.w3.org/1999/xlink" x="0px" y="0px"
	 viewBox="0 0 200 200" style="enable-background:new 0 0 200 200;" xml:space="preserve">
<style type="text/css">
	.st0{fill-rule:evenodd;clip-rule:evenodd;fill:url(#SVGID_1_);}
	.st1{fill-rule:evenodd;clip-rule:evenodd;fill:#FFFFFF;}
</style>
<linearGradient id="SVGID_1_" gradientUnits="userSpaceOnUse" x1="2.0495" y1="102.1597" x2="197.9505" y2="298.0607" gradientTransform="matrix(1 0 0 1 0 -100.1102)">
	<stop  offset="0" style="stop-color:#0077FC"/>
	<stop  offset="1" style="stop-color:#095EB5"/>
</linearGradient>
<path class="st0" d="M198,100c0-12.7-2.5-25.7-7.4-37.4s-12.1-22.7-21.2-31.9c-9.2-9-20-16.3-31.9-21.2S112.7,2,100,2
	S74.3,4.6,62.6,9.5S39.9,21.6,30.7,30.7c-9,9.2-16.3,20-21.2,31.9S2,87.3,2,100s2.5,25.7,7.4,37.4s12.1,22.7,21.2,31.9
	c9,9,20,16.3,31.7,21.2S87.3,198,100,198s25.7-2.5,37.4-7.4c11.8-4.9,22.7-12.1,31.9-21.2c9-9,16.3-20,21.2-31.7S198,112.7,198,100z
	"/>
<path class="st1" d="M94.9,55.7h10.2v88.5H94.9V55.7z"/>
<path class="st1" d="M89.2,97.5V86.9c-8-3.9-13.7-12.3-13.7-21.9c0-13.5,11-24.5,24.5-24.5c15.3,0,26.3,11,26.3,24.5
	c0,3.3-0.8,6.7-2.4,10.6l-4.3-14.1l-8.6,2.7l7.6,29.2l29.8-11l-3.7-8.6l-11.2,3.7c2-4.3,2.4-7.6,2.4-12.7c0-19-15.3-34.3-36-34.3
	c-19,0-34.3,15.3-34.3,34.3C65.7,80,75.5,92.9,89.2,97.5z"/>
<path class="st1" d="M110.8,102.5v10.6c8,3.9,13.7,12.3,13.7,21.9c0,13.5-11,24.5-24.5,24.5c-15.3,0-26.3-11-26.3-24.5
	c0-3.3,0.8-6.7,2.4-10.6l4.3,14.1l8.6-2.7l-7.6-29.2l-29.8,11l3.7,8.6l11.2-3.7c-2,4.3-2.4,7.6-2.4,12.7c0,19,15.3,34.3,36,34.3
	c19,0,34.3-15.3,34.3-34.3C134.3,120,124.5,107.1,110.8,102.5z"/>
</svg>
